<?xml version="1.0" standalone="no"?>
<!DOCTYPE svg PUBLIC "-//W3C//DTD SVG 1.1//EN" "http://www.w3.org/Graphics/SVG/1.1/DTD/svg11.dtd" >
<svg xmlns="http://www.w3.org/2000/svg" xmlns:xlink="http://www.w3.org/1999/xlink" version="1.1">
<metadata>
Created by FontForge 20170731 at Sun Mar  5 21:37:42 2017
 By Aleksey,,,
Copyright (c) 2016 by Ion Lucin. All rights reserved.
</metadata>
<defs>
<font id="BigJohnPRO-Bold" horiz-adv-x="580" >
  <font-face 
    font-family="Big John PRO Bold"
    font-weight="400"
    font-stretch="normal"
    units-per-em="1000"
    panose-1="0 0 5 0 0 0 0 0 0 0"
    ascent="750"
    descent="-250"
    x-height="460"
    cap-height="750"
    bbox="-179 -327 1093 975"
    underline-thickness="50"
    underline-position="-200"
    unicode-range="U+000D-2212"
  />
<missing-glyph horiz-adv-x="450" 
 />
    <glyph glyph-name=".notdef" horiz-adv-x="450" 
 />
    <glyph glyph-name=".null" horiz-adv-x="0" 
 />
    <glyph glyph-name="nonmarkingreturn" horiz-adv-x="333" 
 />
    <glyph glyph-name="CR" unicode="&#xd;" horiz-adv-x="600" 
 />
    <glyph glyph-name="space" unicode=" " horiz-adv-x="250" 
 />
    <glyph glyph-name="exclam" unicode="!" horiz-adv-x="258" 
d="M50 200v550h158v-550h-158zM129 0q-33 0 -56 23t-23 56t23 56.5t56 23.5t56 -23.5t23 -56.5t-23 -56t-56 -23z" />
    <glyph glyph-name="quotedbl" unicode="&#x22;" horiz-adv-x="600" 
d="M142 492l-19 208h127l-22 -208h-86zM322 492l-19 208h127l-22 -208h-86z" />
    <glyph glyph-name="dollar" unicode="$" horiz-adv-x="624" 
d="M224 -52v62q-87 21 -140.5 82t-53.5 137h200q0 -25 20.5 -41.5t52.5 -16.5q31 0 51 16t20 42q0 27 -21.5 43t-51.5 16q-110 0 -190 68t-80 163q0 79 53 140t140 82v74h156v-74q85 -21 139.5 -82t54.5 -139h-199q0 24 -21 41t-51 17q-32 0 -52 -16t-20 -42t20 -42.5
t52 -16.5q114 0 192.5 -67.5t78.5 -163.5q0 -79 -54 -140t-140 -81v-61h-156z" />
    <glyph glyph-name="percent" unicode="%" horiz-adv-x="624" 
d="M50 0l346 750h176l-347 -750h-175zM129 591q-32 0 -55.5 23t-23.5 55t23.5 56.5t55.5 24.5t55.5 -24.5t23.5 -56.5t-23.5 -55t-55.5 -23zM495 0q-32 0 -55.5 23t-23.5 55t23.5 56.5t55.5 24.5t55.5 -24.5t23.5 -56.5t-23.5 -55t-55.5 -23z" />
    <glyph glyph-name="ampersand" unicode="&#x26;" horiz-adv-x="734" 
d="M564 -1l-72 72q-2 -3 -6.5 -7.5t-21 -17t-34.5 -22t-48.5 -17t-62.5 -7.5q-93 0 -170 68t-77 169q0 33 8.5 64.5t21 53t24.5 39t20 25.5l9 8l114 116q7 8 7 19q0 10 -8 18t-19 8q-5 0 -11 -2t-9 -4l-3 -2q-4 -4 -10.5 -10t-23.5 -22.5t-32.5 -31.5t-31.5 -30t-25 -24
l-9 -8l-3 6q-3 5 -8.5 15t-10.5 22.5t-8.5 30t-3.5 34.5q0 26 10.5 56t31.5 61t60 51t89 20t88 -21.5t57.5 -54t28.5 -62.5t9 -55q0 -75 -67 -140l-102 -102q-35 -31 -35 -67q0 -32 23 -61.5t62 -29.5q18 0 34 6.5t23 12.5l8 7l111 111l183 -183z" />
    <glyph glyph-name="parenleft" unicode="(" horiz-adv-x="415" 
d="M395 0q-156 0 -265.5 109t-109.5 265t109.5 266t265.5 110v-159q-90 0 -153 -63t-63 -154q0 -90 63 -153t153 -63v-158z" />
    <glyph glyph-name="parenright" unicode=")" horiz-adv-x="415" 
d="M20 0v158q90 0 153 63t63 153q0 91 -63 154t-153 63v159q156 0 265.5 -110t109.5 -266t-109.5 -265t-265.5 -109z" />
    <glyph glyph-name="plus" unicode="+" horiz-adv-x="573" 
d="M207 125v157h-157v158h157v158h159v-158h157v-158h-157v-157h-159z" />
    <glyph glyph-name="comma" unicode="," horiz-adv-x="240" 
d="M120 -82v82q-32 0 -55.5 22.5t-23.5 54.5t23.5 56.5t55.5 24.5t55.5 -24.5t23.5 -56.5v-10t-3.5 -25t-11 -37.5t-24 -42.5t-40.5 -44z" />
    <glyph glyph-name="hyphen" unicode="-" horiz-adv-x="494" 
d="M50 342v158h394v-158h-394z" />
    <glyph glyph-name="period" unicode="." horiz-adv-x="240" 
d="M120 0q-34 0 -56.5 23.5t-22.5 57.5t22.5 56.5t56.5 22.5t56.5 -22.5t22.5 -56.5t-22.5 -57.5t-56.5 -23.5z" />
    <glyph glyph-name="slash" unicode="/" horiz-adv-x="562" 
d="M20 0l346 750h176l-347 -750h-175z" />
    <glyph glyph-name="zero" unicode="0" horiz-adv-x="612" 
d="M305 0q-102 0 -173.5 71.5t-71.5 173.5v260q0 101 71.5 173t173.5 72q101 0 173.5 -72t72.5 -174v-259q0 -102 -72 -173.5t-174 -71.5zM305 158q37 0 62.5 25.5t25.5 62.5v257q0 37 -25.5 62.5t-62.5 25.5t-62.5 -25.5t-25.5 -61.5v-258q0 -37 25.5 -62.5t62.5 -25.5z
" />
    <glyph glyph-name="one" unicode="1" horiz-adv-x="357" 
d="M80 0v750h197v-750h-197z" />
    <glyph glyph-name="two" unicode="2" horiz-adv-x="611" 
d="M42 0l302 429l14 17l19 38v22q0 31 -25.5 58.5t-63.5 27.5q-36 0 -61.5 -26t-25.5 -63h-161q0 100 71 173.5t183 73.5q105 0 174 -76.5t69 -173.5q0 -35 -11.5 -69.5t-22.5 -51.5l-11 -17l-143 -203h212v-159h-519z" />
    <glyph glyph-name="three" unicode="3" horiz-adv-x="579" 
d="M296 0q-32 0 -62 7.5t-50.5 17.5t-37 20.5t-24 17.5t-7.5 8l28 29l56 56l28 28q0 -2 6.5 -7.5t24 -12.5t38.5 -7q35 0 58 26t23 59q0 35 -22.5 63t-59.5 28q-24 0 -41 -6.5t-22 -13.5l-5 -7l-112 113l120 173h-155v158h459l-188 -267q7 -2 19.5 -6t44 -22.5t55.5 -43
t44 -69.5t20 -99q0 -107 -73.5 -175t-164.5 -68z" />
    <glyph glyph-name="four" unicode="4" horiz-adv-x="650" 
d="M348 0v159h-343v160l302 431h199v-432h138v-159h-138v-159h-158zM198 318h150v214z" />
    <glyph glyph-name="five" unicode="5" horiz-adv-x="650" 
d="M325 0q-101 0 -173 72t-72 173v5h157q0 -37 25.5 -62t62.5 -25q36 0 61.5 25.5t25.5 62.5q0 36 -25.5 61.5t-61.5 25.5h-245v412h473v-159h-315v-101h87q101 0 173 -72t72 -173t-72 -173t-173 -72z" />
    <glyph glyph-name="six" unicode="6" horiz-adv-x="574" 
d="M287 0q-102 0 -174.5 72.5t-72.5 174.5q0 71 38 134l214 369h184l-150 -259q88 -14 148 -83.5t60 -160.5q0 -102 -72.5 -174.5t-174.5 -72.5zM287 159q36 0 62 25.5t26 62.5q0 36 -26 62t-62 26q-37 0 -62.5 -26t-25.5 -62q0 -37 25.5 -62.5t62.5 -25.5z" />
    <glyph glyph-name="seven" unicode="7" horiz-adv-x="650" 
d="M92 0l341 590h-399v160h580v-161l-340 -589h-182z" />
    <glyph glyph-name="eight" unicode="8" horiz-adv-x="571" 
d="M285 0q-102 0 -173.5 71.5t-71.5 173.5q0 105 74 176q-37 55 -37 120q0 86 61 147.5t147 61.5t147.5 -61.5t61.5 -147.5q0 -66 -38 -120q75 -72 75 -176q0 -102 -72 -173.5t-174 -71.5zM285 491q21 0 35.5 14t14.5 35t-14.5 35.5t-35.5 14.5t-35 -14.5t-14 -35.5t14 -35
t35 -14zM285 158q36 0 62 25.5t26 61.5q0 35 -25 60.5t-60 27.5h-7q-35 -2 -59 -27.5t-24 -60.5q0 -36 25.5 -61.5t61.5 -25.5z" />
    <glyph glyph-name="nine" unicode="9" horiz-adv-x="650" 
d="M136 0l151 263q-88 14 -147 82.5t-59 159.5q0 101 72 173t173 72t173 -72t72 -173q0 -67 -35 -126l-218 -379h-182zM326 414q37 0 62.5 25.5t25.5 62.5t-25.5 62.5t-62.5 25.5t-62.5 -25.5t-25.5 -62.5q0 -38 25 -63t63 -25z" />
    <glyph glyph-name="colon" unicode=":" horiz-adv-x="242" 
d="M121 236q-33 0 -56.5 23.5t-23.5 56.5t23.5 56.5t56.5 23.5t56.5 -23.5t23.5 -56.5t-23.5 -56.5t-56.5 -23.5zM121 0q-33 0 -56.5 23.5t-23.5 56.5t23.5 56.5t56.5 23.5t56.5 -23.5t23.5 -56.5t-23.5 -56.5t-56.5 -23.5z" />
    <glyph glyph-name="semicolon" unicode=";" horiz-adv-x="242" 
d="M121 236q-33 0 -56.5 23.5t-23.5 56.5t23.5 56.5t56.5 23.5t56.5 -23.5t23.5 -56.5t-23.5 -56.5t-56.5 -23.5zM120 -82v82q-32 0 -55.5 22.5t-23.5 54.5t23.5 56.5t55.5 24.5t55.5 -24.5t23.5 -56.5v-10t-3.5 -25t-11 -37.5t-24 -42.5t-40.5 -44z" />
    <glyph glyph-name="equal" unicode="=" horiz-adv-x="494" 
d="M50 413v158h394v-158h-394zM50 98v157h394v-157h-394z" />
    <glyph glyph-name="question" unicode="?" horiz-adv-x="590" 
d="M207 192v218h88q37 0 62 25.5t25 63.5q0 37 -25 62t-62 25t-61.5 -24t-26.5 -59v-4h-157v6q0 101 72 173t173 72t173 -72t72 -173q0 -82 -49 -147t-126 -88v-78h-158zM286 0q-35 0 -57.5 22.5t-22.5 56.5t22.5 56t57.5 22q34 0 56 -22t22 -56t-22 -56.5t-56 -22.5z" />
    <glyph glyph-name="at" unicode="@" horiz-adv-x="1143" 
d="M571 -291q-218 0 -369.5 152t-151.5 366q0 140 69 260t188.5 190t259.5 70q109 0 207 -41.5t167.5 -111.5t110.5 -166t41 -201q0 -107 -41 -202t-115 -166l-243 166q-59 -35 -124 -35q-100 0 -170 70t-70 171q0 100 70 169.5t170 69.5q72 0 125 -35v24h139v-358l62 -38
q41 73 41 164q0 150 -108 256t-262 106q-150 0 -255.5 -106t-105.5 -256q0 -151 106 -255.5t259 -104.5v-158zM669 231q0 41 -28.5 70.5t-69.5 29.5t-69.5 -29.5t-28.5 -70.5t28.5 -70.5t69.5 -29.5t69.5 29.5t28.5 70.5z" />
    <glyph glyph-name="A" unicode="A" horiz-adv-x="831" 
d="M20 0l350 750h88l353 -750h-197l-46 98h-307l-45 -98h-196zM338 264h153l-76 165z" />
    <glyph glyph-name="B" unicode="B" horiz-adv-x="720" 
d="M85 0v750h331q90 0 156 -66.5t66 -156.5q0 -74 -48 -135q39 -31 62 -76.5t23 -95.5q0 -89 -65.5 -154.5t-154.5 -65.5h-370zM282 457h95q27 0 46 19t19 46t-19 46t-46 19h-95v-130zM282 162h132q27 0 46 19t19 46t-19.5 46t-45.5 19h-132v-130z" />
    <glyph glyph-name="C" unicode="C" horiz-adv-x="736" 
d="M425 0q-155 0 -265 110t-110 265t110 265t265 110t264 -109l-138 -139q-51 49 -126 49q-77 0 -126.5 -49.5t-49.5 -126.5t49.5 -126.5t126.5 -49.5q78 0 126 50l140 -138q-52 -52 -122.5 -81.5t-143.5 -29.5z" />
    <glyph glyph-name="D" unicode="D" horiz-adv-x="788" 
d="M85 0v750h278q155 0 265 -110t110 -265t-110 -265t-265 -110h-278zM281 194h83q74 0 126 52t52 126q0 73 -52.5 125t-125.5 52h-83v-355z" />
    <glyph glyph-name="E" unicode="E" horiz-adv-x="616" 
d="M85 0v750h466v-163h-269v-122h238v-166h-238v-138h269v-161h-466z" />
    <glyph glyph-name="F" unicode="F" horiz-adv-x="620" 
d="M85 0v750h470v-162h-273v-122h241v-167h-241v-299h-197z" />
    <glyph glyph-name="G" unicode="G" horiz-adv-x="844" 
d="M424 0q-155 0 -264.5 110t-109.5 265t109.5 265t264.5 110q153 0 264 -109l-139 -138q-53 50 -125 50t-124.5 -51t-52.5 -127q0 -75 53 -126.5t124 -51.5q44 0 83 20t62 54h-145v132h375v-28q0 -155 -110 -265t-265 -110z" />
    <glyph glyph-name="H" unicode="H" horiz-adv-x="802" 
d="M85 0v750h197v-267h238v267h197v-750h-197v286h-238v-286h-197z" />
    <glyph glyph-name="I" unicode="I" horiz-adv-x="367" 
d="M85 0v750h197v-750h-197z" />
    <glyph glyph-name="J" unicode="J" horiz-adv-x="563" 
d="M219 0q-116 0 -199 81l138 139q26 -24 54 -24q35 0 57 22t22 59v473h197v-461q0 -126 -78.5 -207.5t-190.5 -81.5z" />
    <glyph glyph-name="K" unicode="K" horiz-adv-x="856" 
d="M85 0v750h197v-286l288 286h276l-378 -377l372 -373h-282l-229 231l-47 -48v-183h-197z" />
    <glyph glyph-name="L" unicode="L" horiz-adv-x="617" 
d="M85 0v750h197v-552h270v-198h-467z" />
    <glyph glyph-name="M" unicode="M" horiz-adv-x="939" 
d="M75 0v750h89l306 -278l305 278h89v-750h-198v385l-196 -179l-197 178v-384h-198z" />
    <glyph glyph-name="N" unicode="N" horiz-adv-x="782" 
d="M75 0v750h80l355 -354v354h197v-750h-81l-354 355v-355h-197z" />
    <glyph glyph-name="O" unicode="O" horiz-adv-x="849" 
d="M799 374q0 -155 -110 -264.5t-265 -109.5t-264.5 109.5t-109.5 264.5t109.5 265.5t264.5 110.5t265 -110.5t110 -265.5zM603 375q0 74 -52.5 126.5t-126.5 52.5t-126 -52.5t-52 -126.5t52.5 -126.5t125.5 -52.5q74 0 126.5 52.5t52.5 126.5z" />
    <glyph glyph-name="P" unicode="P" horiz-adv-x="707" 
d="M85 0v750h316q114 0 195 -81t81 -195q0 -113 -80 -194t-192 -81h-123v-199h-197zM282 369h122q45 0 76.5 31t31.5 76t-31.5 76.5t-76.5 31.5h-122v-215z" />
    <glyph glyph-name="Q" unicode="Q" horiz-adv-x="850" 
d="M418 0q-153 0 -260.5 109.5t-107.5 265.5q0 159 104 267t271 108q162 0 268.5 -109t106.5 -266q0 -95 -50 -181l50 -51v-143h-132l-53 53q-88 -53 -197 -53zM425 198q22 0 42 5l-92 91l137 135l88 -89q4 22 4 34q0 76 -51 127.5t-128 51.5q-75 0 -125.5 -52t-50.5 -127
q0 -72 51 -124t125 -52z" />
    <glyph glyph-name="R" unicode="R" horiz-adv-x="777" 
d="M85 0v750h316q114 0 195 -81t81 -195q0 -120 -89 -202l159 -272h-227l-116 199h-122v-199h-197zM282 369h122q45 0 76.5 31t31.5 76t-31.5 76.5t-76.5 31.5h-122v-215z" />
    <glyph glyph-name="S" unicode="S" horiz-adv-x="624" 
d="M306 0q-120 0 -198 67.5t-78 161.5h200q0 -25 20.5 -41.5t52.5 -16.5q31 0 51 16t20 42q0 27 -21.5 43t-51.5 16q-110 0 -190 68t-80 163q0 97 77 164t195 67q113 0 192 -67t79 -163h-199q0 24 -21 41t-51 17q-32 0 -52 -16t-20 -42t20 -42.5t52 -16.5q114 0 192.5 -67.5
t78.5 -163.5t-78 -163t-190 -67z" />
    <glyph glyph-name="T" unicode="T" horiz-adv-x="691" 
d="M245 0v555h-195v196h591v-196h-199v-555h-197z" />
    <glyph glyph-name="U" unicode="U" horiz-adv-x="742" 
d="M371 0q-124 0 -210 86t-86 210v454h198v-451q0 -41 28.5 -69.5t69.5 -28.5t69.5 28.5t28.5 69.5v451h198v-454q0 -123 -86.5 -209.5t-209.5 -86.5z" />
    <glyph glyph-name="V" unicode="V" horiz-adv-x="809" 
d="M360 0l-350 751h198l197 -427l198 427h196l-349 -751h-90z" />
    <glyph glyph-name="W" unicode="W" horiz-adv-x="1057" 
d="M256 0l-246 750h200l146 -447l73 221h199l73 -220l146 446h200l-247 -750h-199l-72 222l-74 -222h-199z" />
    <glyph glyph-name="X" unicode="X" horiz-adv-x="808" 
d="M10 0l273 391l-250 359h240l131 -187l130 187h240l-250 -359l274 -391h-240l-154 220l-154 -220h-240z" />
    <glyph glyph-name="Y" unicode="Y" horiz-adv-x="763" 
d="M284 0v276l-274 474h227l144 -250l145 250h227l-274 -474v-276h-195z" />
    <glyph glyph-name="Z" unicode="Z" horiz-adv-x="710" 
d="M25 0l319 552h-320v198h661l-319 -553h320v-197h-661z" />
    <glyph glyph-name="bracketleft" unicode="[" horiz-adv-x="277" 
d="M20 0v750h237v-156h-79v-434h79v-160h-237z" />
    <glyph glyph-name="backslash" unicode="\" horiz-adv-x="562" 
d="M367 0l-347 750h176l346 -750h-175z" />
    <glyph glyph-name="bracketright" unicode="]" horiz-adv-x="277" 
d="M20 0v160h79v434h-79v156h237v-750h-237z" />
    <glyph glyph-name="underscore" unicode="_" horiz-adv-x="494" 
d="M50 -158v158h394v-158h-394z" />
    <glyph glyph-name="grave" unicode="`" horiz-adv-x="240" 
d="M124 826l-104 138h137l63 -138h-96z" />
    <glyph glyph-name="a" unicode="a" horiz-adv-x="630" 
d="M407 460h163v-460h-163v22q-55 -32 -120 -32q-101 0 -171.5 70t-70.5 170t70.5 170t171.5 70q65 0 120 -32v22zM287 138q37 0 61.5 26t24.5 64q0 37 -25 63t-61 26t-62.5 -26t-26.5 -63t26.5 -63.5t62.5 -26.5z" />
    <glyph glyph-name="b" unicode="b" horiz-adv-x="634" 
d="M349 -10q-59 0 -119 38v-28h-160v751h160v-315q57 34 119 34q99 0 169.5 -68t70.5 -169q0 -106 -72 -174.5t-168 -68.5zM350 140q37 0 62.5 26.5t25.5 63.5q0 36 -26 62.5t-62 26.5q-39 0 -65 -26t-26 -63t26 -63.5t65 -26.5z" />
    <glyph glyph-name="c" unicode="c" horiz-adv-x="490" 
d="M285 -10q-99 0 -169.5 69.5t-70.5 169.5t70.5 170.5t169.5 70.5q97 0 170 -71l-106 -108q-25 27 -64 27q-37 0 -63 -26t-26 -63t26 -63.5t63 -26.5q39 0 62 27l108 -106q-72 -70 -170 -70z" />
    <glyph glyph-name="d" unicode="d" horiz-adv-x="634" 
d="M285 -10q-96 0 -168 68.5t-72 174.5q0 101 70.5 169t169.5 68q62 0 119 -34v315h160v-751h-160v28q-60 -38 -119 -38zM284 140q39 0 65 26.5t26 63.5t-26 63t-65 26q-36 0 -62 -26.5t-26 -62.5q0 -37 25.5 -63.5t62.5 -26.5z" />
    <glyph glyph-name="e" unicode="e" horiz-adv-x="559" 
d="M286 -10q-101 0 -171 70t-70 170t70.5 170t170.5 70q101 0 169.5 -70t68.5 -170q0 -27 -4 -48h-334q14 -28 41 -45t59 -17q30 0 53 14l95 -95q-69 -49 -148 -49zM185 276h197q-12 28 -38 45.5t-58 17.5q-33 0 -60 -17.5t-41 -45.5z" />
    <glyph glyph-name="f" unicode="f" horiz-adv-x="378" 
d="M348 460v-121h-82v-339h-160v339h-76v121h76v27q1 114 66.5 185t174.5 78v-159q-81 -9 -81 -106v-25h82z" />
    <glyph glyph-name="g" unicode="g" horiz-adv-x="640" 
d="M407 460h163v-502q0 -110 -72.5 -185t-188.5 -75h-109v161h112q46 0 70.5 26t24.5 73v64q-55 -32 -120 -32q-101 0 -171.5 70t-70.5 170t70.5 170t171.5 70q65 0 120 -32v22zM287 138q37 0 61.5 26t24.5 64q0 37 -25 63t-61 26t-62.5 -26t-26.5 -63t26.5 -63.5
t62.5 -26.5z" />
    <glyph glyph-name="h" unicode="h" horiz-adv-x="613" 
d="M70 0v766h160v-316q34 20 84 20q100 0 169.5 -71.5t69.5 -186.5v-212h-150v217q0 45 -24 71.5t-65 26.5q-37 0 -60.5 -24t-23.5 -63v-228h-160z" />
    <glyph glyph-name="i" unicode="i" horiz-adv-x="300" 
d="M155 507q-31 0 -52.5 22t-21.5 52t21.5 52t52.5 22q30 0 51.5 -22t21.5 -52t-21.5 -52t-51.5 -22zM70 0v460h160v-460h-160z" />
    <glyph glyph-name="j" unicode="j" horiz-adv-x="328" 
d="M176 507q-31 0 -52.5 22t-21.5 52t21.5 52t52.5 22q30 0 51.5 -22t21.5 -52t-21.5 -52t-51.5 -22zM98 460h160v-492q-1 -115 -68.5 -186.5t-179.5 -75.5v160q88 5 88 105v489z" />
    <glyph glyph-name="k" unicode="k" horiz-adv-x="594" 
d="M564 461l-235 -227l234 -234h-200l-133 134v-134h-160v750h160v-417l126 128h208z" />
    <glyph glyph-name="l" unicode="l" horiz-adv-x="300" 
d="M70 0v750h160v-750h-160z" />
    <glyph glyph-name="m" unicode="m" horiz-adv-x="871" 
d="M596 470q83 0 149 -64.5t66 -155.5v-250h-151v250q0 30 -20 50t-50 20q-28 0 -48 -20t-20 -50v-1v-249h-152v239q0 81 -69 81q-31 0 -51 -22t-20 -59v-239h-160v460h160v-3q32 13 75 13q80 0 142 -54q62 54 149 54z" />
    <glyph glyph-name="n" unicode="n" 
d="M70 0v460h160v-3q37 14 73 14q88 0 152.5 -63.5t64.5 -157.5v-250h-150v250q0 31 -19 51t-45 20q-33 0 -54.5 -20.5t-21.5 -50.5v-250h-160z" />
    <glyph glyph-name="o" unicode="o" horiz-adv-x="572" 
d="M286 -10q-100 0 -170.5 70t-70.5 170q0 99 70.5 169.5t170.5 70.5t170.5 -70.5t70.5 -169.5q0 -100 -70.5 -170t-170.5 -70zM287 140q37 0 62.5 26.5t25.5 63.5q0 36 -26 62.5t-62 26.5q-39 0 -65 -26t-26 -63t26 -63.5t65 -26.5z" />
    <glyph glyph-name="p" unicode="p" horiz-adv-x="634" 
d="M70 -291v751h160v-28q60 38 119 38q96 0 168 -68.5t72 -174.5q0 -101 -70.5 -169t-169.5 -68q-62 0 -119 34v-315h-160zM350 141q36 0 62 26.5t26 62.5q0 37 -25.5 63.5t-62.5 26.5q-39 0 -65 -26.5t-26 -63.5t26 -63t65 -26z" />
    <glyph glyph-name="q" unicode="q" horiz-adv-x="618" 
d="M404 -291v315q-57 -34 -119 -34q-99 0 -169.5 68t-70.5 169q0 106 72 174.5t168 68.5q59 0 119 -38v28h160v-751h-160zM284 141q39 0 65 26t26 63t-26 63.5t-65 26.5q-37 0 -62.5 -26.5t-25.5 -63.5q0 -36 26 -62.5t62 -26.5z" />
    <glyph glyph-name="r" unicode="r" horiz-adv-x="499" 
d="M70 0v460h160v-7q42 17 91 17q98 0 168 -72l-107 -104q-27 26 -66 26q-36 0 -61 -25.5t-25 -63.5v-231h-160z" />
    <glyph glyph-name="s" unicode="s" horiz-adv-x="418" 
d="M211 -10q-80 0 -130.5 44.5t-50.5 102.5h132q0 -16 13.5 -26.5t36.5 -10.5q21 0 33.5 10t12.5 27q0 37 -49 37q-69 0 -123.5 41t-54.5 105q0 68 53.5 109t124.5 41q70 0 125 -43t55 -105h-131q0 14 -13 25t-36 11q-19 0 -32.5 -9.5t-13.5 -26.5q0 -16 14.5 -26.5
t36.5 -10.5q24 0 52 -8t56.5 -24t47.5 -47t19 -72q0 -62 -55 -103t-123 -41z" />
    <glyph glyph-name="t" unicode="t" horiz-adv-x="378" 
d="M338 460v-121h-79v-339h-160v339h-79v121h79v138h160v-138h79z" />
    <glyph glyph-name="u" unicode="u" 
d="M277 -10q-88 0 -152.5 63.5t-64.5 157.5v250h150v-250q0 -31 19 -51t45 -20q33 0 54.5 20.5t21.5 50.5v250h160v-460h-160v3q-37 -14 -73 -14z" />
    <glyph glyph-name="v" unicode="v" horiz-adv-x="553" 
d="M222 0l-217 460h176l96 -205l97 205h174l-213 -460h-113z" />
    <glyph glyph-name="w" unicode="w" horiz-adv-x="810" 
d="M222 0l-217 460h179l95 -205l95 205h64l95 -205l95 205h177l-213 -460h-115l-71 150l-69 -150h-115z" />
    <glyph glyph-name="x" unicode="x" horiz-adv-x="553" 
d="M538 460l-163 -233l159 -227h-195l-62 88l-62 -88h-196l160 228l-164 232h196l66 -93l65 93h196z" />
    <glyph glyph-name="y" unicode="y" horiz-adv-x="583" 
d="M353 460h160v-502q0 -110 -72.5 -185t-188.5 -75h-109v161h112q47 0 72.5 26.5t25.5 72.5v45q-41 -13 -75 -13q-88 0 -153 64t-65 159v247h151v-247q0 -31 19.5 -50.5t45.5 -19.5q33 0 55 20t22 50v247z" />
    <glyph glyph-name="z" unicode="z" horiz-adv-x="579" 
d="M35 0l209 299h-214v161h519l-208 -298h191v-162h-497z" />
    <glyph glyph-name="exclamdown" unicode="&#xa1;" horiz-adv-x="258" 
d="M129 591q-33 0 -56 23.5t-23 56.5t23 56t56 23t56 -23t23 -56t-23 -56.5t-56 -23.5zM50 0v550h158v-550h-158z" />
    <glyph glyph-name="dieresis" unicode="&#xa8;" horiz-adv-x="429" 
d="M100 805q-33 0 -56.5 23.5t-23.5 56.5q0 32 23.5 55.5t56.5 23.5q32 0 55.5 -23.5t23.5 -55.5q0 -33 -23.5 -56.5t-55.5 -23.5zM330 805q-33 0 -56.5 23.5t-23.5 56.5q0 32 23.5 55.5t56.5 23.5q32 0 55.5 -23.5t23.5 -55.5q0 -33 -23.5 -56.5t-55.5 -23.5z" />
    <glyph glyph-name="macron" unicode="&#xaf;" horiz-adv-x="410" 
d="M20 815v149h370v-149h-370z" />
    <glyph glyph-name="acute" unicode="&#xb4;" horiz-adv-x="240" 
d="M20 826l63 149h137l-104 -149h-96z" />
    <glyph glyph-name="cedilla" unicode="&#xb8;" horiz-adv-x="230" 
d="M20 -111l93 124h97l-57 -124h-133z" />
    <glyph glyph-name="questiondown" unicode="&#xbf;" horiz-adv-x="590" 
d="M304 593q-34 0 -56 22t-22 56t22 56.5t56 22.5q35 0 57.5 -22.5t22.5 -56.5t-22.5 -56t-57.5 -22zM295 0q-101 0 -173 72t-72 173q0 82 49 147t126 88v78h158v-218h-88q-37 0 -62 -25.5t-25 -63.5q0 -37 25 -62t62 -25t61.5 24t26.5 59v4h157v-6q0 -101 -72 -173
t-173 -72z" />
    <glyph glyph-name="Agrave" unicode="&#xc0;" horiz-adv-x="831" 
d="M357 826l-104 138h137l63 -138h-96zM20 0l350 750h88l353 -750h-197l-46 98h-307l-45 -98h-196zM338 264h153l-76 165z" />
    <glyph glyph-name="Aacute" unicode="&#xc1;" horiz-adv-x="831" 
d="M364 826l63 149h137l-104 -149h-96zM20 0l350 750h88l353 -750h-197l-46 98h-307l-45 -98h-196zM338 264h153l-76 165z" />
    <glyph glyph-name="Acircumflex" unicode="&#xc2;" horiz-adv-x="831" 
d="M256 831l66 141h183l64 -141h-99l-57 77l-57 -77h-100zM20 0l350 750h88l353 -750h-197l-46 98h-307l-45 -98h-196zM338 264h153l-76 165z" />
    <glyph glyph-name="Atilde" unicode="&#xc3;" horiz-adv-x="831" 
d="M305 804l-91 25q16 69 44.5 101.5t78.5 33.5q28 1 66 -18.5t56 -19.5q34 0 52 45l87 -24q-16 -71 -44 -102t-78 -31q-32 0 -68 18t-55 18q-17 -1 -27.5 -11.5t-20.5 -34.5zM20 0l350 750h88l353 -750h-197l-46 98h-307l-45 -98h-196zM338 264h153l-76 165z" />
    <glyph glyph-name="Adieresis" unicode="&#xc4;" horiz-adv-x="831" 
d="M303 805q-33 0 -56.5 23.5t-23.5 56.5q0 32 23.5 55.5t56.5 23.5q32 0 55.5 -23.5t23.5 -55.5q0 -33 -23.5 -56.5t-55.5 -23.5zM533 805q-33 0 -56.5 23.5t-23.5 56.5q0 32 23.5 55.5t56.5 23.5q32 0 55.5 -23.5t23.5 -55.5q0 -33 -23.5 -56.5t-55.5 -23.5zM20 0l350 750
h88l353 -750h-197l-46 98h-307l-45 -98h-196zM338 264h153l-76 165z" />
    <glyph glyph-name="Aring" unicode="&#xc5;" horiz-adv-x="831" 
d="M412 773q-42 0 -71.5 30t-29.5 71t29.5 71t71.5 30q41 0 70.5 -30t29.5 -71t-29.5 -71t-70.5 -30zM412 845q11 0 19.5 8.5t8.5 20.5t-8.5 20.5t-19.5 8.5q-12 0 -20.5 -8.5t-8.5 -20.5t8.5 -20.5t20.5 -8.5zM20 0l350 750h88l353 -750h-197l-46 98h-307l-45 -98h-196z
M338 264h153l-76 165z" />
    <glyph glyph-name="AE" unicode="&#xc6;" horiz-adv-x="1032" 
d="M20 0l438 750h509v-163h-269v-122h238v-166h-238v-138h269v-161h-466v98h-230l-54 -98h-197zM365 264h136v235z" />
    <glyph glyph-name="Ccedilla" unicode="&#xc7;" horiz-adv-x="736" 
d="M691 111q-103 -103 -249 -111l-54 -116h-133l93 124q-129 26 -213.5 129t-84.5 238q0 155 110 265t265 110t264 -109l-138 -139q-51 49 -126 49q-77 0 -126.5 -49.5t-49.5 -126.5t49.5 -126.5t126.5 -49.5q78 0 126 50z" />
    <glyph glyph-name="Egrave" unicode="&#xc8;" horiz-adv-x="616" 
d="M270 826l-104 138h137l63 -138h-96zM85 0v750h466v-163h-269v-122h238v-166h-238v-138h269v-161h-466z" />
    <glyph glyph-name="Eacute" unicode="&#xc9;" horiz-adv-x="616" 
d="M277 826l63 149h137l-104 -149h-96zM85 0v750h466v-163h-269v-122h238v-166h-238v-138h269v-161h-466z" />
    <glyph glyph-name="Ecircumflex" unicode="&#xca;" horiz-adv-x="616" 
d="M169 831l66 141h183l64 -141h-99l-57 77l-57 -77h-100zM85 0v750h466v-163h-269v-122h238v-166h-238v-138h269v-161h-466z" />
    <glyph glyph-name="Edieresis" unicode="&#xcb;" horiz-adv-x="616" 
d="M216 805q-33 0 -56.5 23.5t-23.5 56.5q0 32 23.5 55.5t56.5 23.5q32 0 55.5 -23.5t23.5 -55.5q0 -33 -23.5 -56.5t-55.5 -23.5zM446 805q-33 0 -56.5 23.5t-23.5 56.5q0 32 23.5 55.5t56.5 23.5q32 0 55.5 -23.5t23.5 -55.5q0 -33 -23.5 -56.5t-55.5 -23.5zM85 0v750h466
v-163h-269v-122h238v-166h-238v-138h269v-161h-466z" />
    <glyph glyph-name="Igrave" unicode="&#xcc;" horiz-adv-x="367" 
d="M127 826l-104 138h137l63 -138h-96zM85 0v750h197v-750h-197z" />
    <glyph glyph-name="Iacute" unicode="&#xcd;" horiz-adv-x="367" 
d="M134 826l63 149h137l-104 -149h-96zM85 0v750h197v-750h-197z" />
    <glyph glyph-name="Icircumflex" unicode="&#xce;" horiz-adv-x="367" 
d="M26 831l66 141h183l64 -141h-99l-57 77l-57 -77h-100zM85 0v750h197v-750h-197z" />
    <glyph glyph-name="Idieresis" unicode="&#xcf;" horiz-adv-x="367" 
d="M73 805q-33 0 -56.5 23.5t-23.5 56.5q0 32 23.5 55.5t56.5 23.5q32 0 55.5 -23.5t23.5 -55.5q0 -33 -23.5 -56.5t-55.5 -23.5zM303 805q-33 0 -56.5 23.5t-23.5 56.5q0 32 23.5 55.5t56.5 23.5q32 0 55.5 -23.5t23.5 -55.5q0 -33 -23.5 -56.5t-55.5 -23.5zM85 0v750h197
v-750h-197z" />
    <glyph glyph-name="Eth" unicode="&#xd0;" horiz-adv-x="805" 
d="M102 0v327h-97v98h97v325h278q155 0 265 -110t110 -265t-110 -265t-265 -110h-278zM298 194h83q73 0 125.5 52t52.5 126q0 73 -52.5 125t-125.5 52h-83v-124h100v-98h-100v-133z" />
    <glyph glyph-name="Ntilde" unicode="&#xd1;" horiz-adv-x="782" 
d="M282 804l-91 25q16 69 44.5 101.5t78.5 33.5q28 1 66 -18.5t56 -19.5q34 0 52 45l87 -24q-16 -71 -44 -102t-78 -31q-32 0 -68 18t-55 18q-17 -1 -27.5 -11.5t-20.5 -34.5zM75 0v750h80l355 -354v354h197v-750h-81l-354 355v-355h-197z" />
    <glyph glyph-name="Ograve" unicode="&#xd2;" horiz-adv-x="849" 
d="M368 826l-104 138h137l63 -138h-96zM799 374q0 -155 -110 -264.5t-265 -109.5t-264.5 109.5t-109.5 264.5t109.5 265.5t264.5 110.5t265 -110.5t110 -265.5zM603 375q0 74 -52.5 126.5t-126.5 52.5t-126 -52.5t-52 -126.5t52.5 -126.5t125.5 -52.5q74 0 126.5 52.5
t52.5 126.5z" />
    <glyph glyph-name="Oacute" unicode="&#xd3;" horiz-adv-x="849" 
d="M375 826l63 149h137l-104 -149h-96zM799 374q0 -155 -110 -264.5t-265 -109.5t-264.5 109.5t-109.5 264.5t109.5 265.5t264.5 110.5t265 -110.5t110 -265.5zM603 375q0 74 -52.5 126.5t-126.5 52.5t-126 -52.5t-52 -126.5t52.5 -126.5t125.5 -52.5q74 0 126.5 52.5
t52.5 126.5z" />
    <glyph glyph-name="Ocircumflex" unicode="&#xd4;" horiz-adv-x="849" 
d="M267 831l66 141h183l64 -141h-99l-57 77l-57 -77h-100zM799 374q0 -155 -110 -264.5t-265 -109.5t-264.5 109.5t-109.5 264.5t109.5 265.5t264.5 110.5t265 -110.5t110 -265.5zM603 375q0 74 -52.5 126.5t-126.5 52.5t-126 -52.5t-52 -126.5t52.5 -126.5t125.5 -52.5
q74 0 126.5 52.5t52.5 126.5z" />
    <glyph glyph-name="Otilde" unicode="&#xd5;" horiz-adv-x="849" 
d="M316 804l-91 25q16 69 44.5 101.5t78.5 33.5q28 1 66 -18.5t56 -19.5q34 0 52 45l87 -24q-16 -71 -44 -102t-78 -31q-32 0 -68 18t-55 18q-17 -1 -27.5 -11.5t-20.5 -34.5zM799 374q0 -155 -110 -264.5t-265 -109.5t-264.5 109.5t-109.5 264.5t109.5 265.5t264.5 110.5
t265 -110.5t110 -265.5zM603 375q0 74 -52.5 126.5t-126.5 52.5t-126 -52.5t-52 -126.5t52.5 -126.5t125.5 -52.5q74 0 126.5 52.5t52.5 126.5z" />
    <glyph glyph-name="Odieresis" unicode="&#xd6;" horiz-adv-x="849" 
d="M314 805q-33 0 -56.5 23.5t-23.5 56.5q0 32 23.5 55.5t56.5 23.5q32 0 55.5 -23.5t23.5 -55.5q0 -33 -23.5 -56.5t-55.5 -23.5zM544 805q-33 0 -56.5 23.5t-23.5 56.5q0 32 23.5 55.5t56.5 23.5q32 0 55.5 -23.5t23.5 -55.5q0 -33 -23.5 -56.5t-55.5 -23.5zM799 374
q0 -155 -110 -264.5t-265 -109.5t-264.5 109.5t-109.5 264.5t109.5 265.5t264.5 110.5t265 -110.5t110 -265.5zM603 375q0 74 -52.5 126.5t-126.5 52.5t-126 -52.5t-52 -126.5t52.5 -126.5t125.5 -52.5q74 0 126.5 52.5t52.5 126.5z" />
    <glyph glyph-name="Oslash" unicode="&#xd8;" horiz-adv-x="923" 
d="M873 696l-110 -110q65 -97 65 -212q0 -155 -110 -264.5t-265 -109.5q-114 0 -210 64l-91 -91l-102 97l93 94q-64 96 -64 210q0 155 109.5 265.5t264.5 110.5q115 0 209 -64l111 111zM275 375q0 -33 13 -66l231 233q-30 12 -66 12q-74 0 -126 -52.5t-52 -126.5zM632 375
q0 33 -13 67l-232 -233q34 -13 66 -13q74 0 126.5 52.5t52.5 126.5z" />
    <glyph glyph-name="Ugrave" unicode="&#xd9;" horiz-adv-x="742" 
d="M314 826l-104 138h137l63 -138h-96zM371 0q-124 0 -210 86t-86 210v454h198v-451q0 -41 28.5 -69.5t69.5 -28.5t69.5 28.5t28.5 69.5v451h198v-454q0 -123 -86.5 -209.5t-209.5 -86.5z" />
    <glyph glyph-name="Uacute" unicode="&#xda;" horiz-adv-x="742" 
d="M321 826l63 149h137l-104 -149h-96zM371 0q-124 0 -210 86t-86 210v454h198v-451q0 -41 28.5 -69.5t69.5 -28.5t69.5 28.5t28.5 69.5v451h198v-454q0 -123 -86.5 -209.5t-209.5 -86.5z" />
    <glyph glyph-name="Ucircumflex" unicode="&#xdb;" horiz-adv-x="742" 
d="M213 831l66 141h183l64 -141h-99l-57 77l-57 -77h-100zM371 0q-124 0 -210 86t-86 210v454h198v-451q0 -41 28.5 -69.5t69.5 -28.5t69.5 28.5t28.5 69.5v451h198v-454q0 -123 -86.5 -209.5t-209.5 -86.5z" />
    <glyph glyph-name="Udieresis" unicode="&#xdc;" horiz-adv-x="742" 
d="M260 805q-33 0 -56.5 23.5t-23.5 56.5q0 32 23.5 55.5t56.5 23.5q32 0 55.5 -23.5t23.5 -55.5q0 -33 -23.5 -56.5t-55.5 -23.5zM490 805q-33 0 -56.5 23.5t-23.5 56.5q0 32 23.5 55.5t56.5 23.5q32 0 55.5 -23.5t23.5 -55.5q0 -33 -23.5 -56.5t-55.5 -23.5zM371 0
q-124 0 -210 86t-86 210v454h198v-451q0 -41 28.5 -69.5t69.5 -28.5t69.5 28.5t28.5 69.5v451h198v-454q0 -123 -86.5 -209.5t-209.5 -86.5z" />
    <glyph glyph-name="Yacute" unicode="&#xdd;" horiz-adv-x="763" 
d="M331 826l63 149h137l-104 -149h-96zM284 0v276l-274 474h227l144 -250l145 250h227l-274 -474v-276h-195z" />
    <glyph glyph-name="agrave" unicode="&#xe0;" horiz-adv-x="630" 
d="M337 547h-96l-104 138h137zM407 460h163v-460h-163v22q-55 -32 -120 -32q-101 0 -171.5 70t-70.5 170t70.5 170t171.5 70q65 0 120 -32v22zM287 138q37 0 61.5 26t24.5 64q0 37 -25 63t-61 26t-62.5 -26t-26.5 -63t26.5 -63.5t62.5 -26.5z" />
    <glyph glyph-name="aacute" unicode="&#xe1;" horiz-adv-x="630" 
d="M448 696l-104 -149h-96l63 149h137zM407 460h163v-460h-163v22q-55 -32 -120 -32q-101 0 -171.5 70t-70.5 170t70.5 170t171.5 70q65 0 120 -32v22zM287 138q37 0 61.5 26t24.5 64q0 37 -25 63t-61 26t-62.5 -26t-26.5 -63t26.5 -63.5t62.5 -26.5z" />
    <glyph glyph-name="acircumflex" unicode="&#xe2;" horiz-adv-x="630" 
d="M297 629l-57 -77h-100l66 141h183l64 -141h-99zM407 460h163v-460h-163v22q-55 -32 -120 -32q-101 0 -171.5 70t-70.5 170t70.5 170t171.5 70q65 0 120 -32v22zM287 138q37 0 61.5 26t24.5 64q0 37 -25 63t-61 26t-62.5 -26t-26.5 -63t26.5 -63.5t62.5 -26.5z" />
    <glyph glyph-name="atilde" unicode="&#xe3;" horiz-adv-x="630" 
d="M237 571q-17 -1 -27.5 -11.5t-20.5 -34.5l-91 25q16 69 44.5 101.5t78.5 33.5q28 1 66 -18.5t56 -19.5q34 0 52 45l87 -24q-16 -71 -44 -102t-78 -31q-32 0 -68 18t-55 18zM407 460h163v-460h-163v22q-55 -32 -120 -32q-101 0 -171.5 70t-70.5 170t70.5 170t171.5 70
q65 0 120 -32v22zM287 138q37 0 61.5 26t24.5 64q0 37 -25 63t-61 26t-62.5 -26t-26.5 -63t26.5 -63.5t62.5 -26.5z" />
    <glyph glyph-name="adieresis" unicode="&#xe4;" horiz-adv-x="630" 
d="M187 526q-33 0 -56.5 23.5t-23.5 56.5q0 32 23.5 55.5t56.5 23.5q32 0 55.5 -23.5t23.5 -55.5q0 -33 -23.5 -56.5t-55.5 -23.5zM417 526q-33 0 -56.5 23.5t-23.5 56.5q0 32 23.5 55.5t56.5 23.5q32 0 55.5 -23.5t23.5 -55.5q0 -33 -23.5 -56.5t-55.5 -23.5zM407 460h163
v-460h-163v22q-55 -32 -120 -32q-101 0 -171.5 70t-70.5 170t70.5 170t171.5 70q65 0 120 -32v22zM287 138q37 0 61.5 26t24.5 64q0 37 -25 63t-61 26t-62.5 -26t-26.5 -63t26.5 -63.5t62.5 -26.5z" />
    <glyph glyph-name="aring" unicode="&#xe5;" horiz-adv-x="630" 
d="M296 494q-42 0 -71.5 30t-29.5 71t29.5 71t71.5 30q41 0 70.5 -30t29.5 -71t-29.5 -71t-70.5 -30zM296 624q-12 0 -20.5 -8.5t-8.5 -20.5t8.5 -20.5t20.5 -8.5q11 0 19.5 8.5t8.5 20.5t-8.5 20.5t-19.5 8.5zM407 460h163v-460h-163v22q-55 -32 -120 -32q-101 0 -171.5 70
t-70.5 170t70.5 170t171.5 70q65 0 120 -32v22zM287 138q37 0 61.5 26t24.5 64q0 37 -25 63t-61 26t-62.5 -26t-26.5 -63t26.5 -63.5t62.5 -26.5z" />
    <glyph glyph-name="ae" unicode="&#xe6;" horiz-adv-x="943" 
d="M287 -10q-101 0 -171.5 70t-70.5 170t70.5 170t171.5 70q65 0 120 -32v22h163v-11q48 21 100 21q101 0 169.5 -70t68.5 -170q0 -27 -4 -48h-334q14 -28 41 -45t59 -17q30 0 53 14l95 -95q-69 -49 -148 -49q-52 0 -100 21v-11h-163v22q-55 -32 -120 -32zM570 276h196
q-12 28 -38 45.5t-58 17.5q-70 0 -100 -63zM287 138q37 0 61.5 26t24.5 64q0 37 -25 63t-61 26t-62.5 -26t-26.5 -63t26.5 -63.5t62.5 -26.5z" />
    <glyph glyph-name="ccedilla" unicode="&#xe7;" horiz-adv-x="490" 
d="M347 166l108 -106q-50 -49 -113 -64l-52 -112h-133l83 110q-84 16 -139.5 81.5t-55.5 153.5q0 100 70.5 170.5t169.5 70.5q97 0 170 -71l-106 -108q-25 27 -64 27q-37 0 -63 -26t-26 -63t26 -63.5t63 -26.5q39 0 62 27z" />
    <glyph glyph-name="egrave" unicode="&#xe8;" horiz-adv-x="559" 
d="M229 547l-104 138h137l63 -138h-96zM286 -10q-101 0 -171 70t-70 170t70.5 170t170.5 70q101 0 169.5 -70t68.5 -170q0 -27 -4 -48h-334q14 -28 41 -45t59 -17q30 0 53 14l95 -95q-69 -49 -148 -49zM185 276h197q-12 28 -38 45.5t-58 17.5q-33 0 -60 -17.5t-41 -45.5z
" />
    <glyph glyph-name="eacute" unicode="&#xe9;" horiz-adv-x="559" 
d="M236 547l63 149h137l-104 -149h-96zM286 -10q-101 0 -171 70t-70 170t70.5 170t170.5 70q101 0 169.5 -70t68.5 -170q0 -27 -4 -48h-334q14 -28 41 -45t59 -17q30 0 53 14l95 -95q-69 -49 -148 -49zM185 276h197q-12 28 -38 45.5t-58 17.5q-33 0 -60 -17.5t-41 -45.5z
" />
    <glyph glyph-name="ecircumflex" unicode="&#xea;" horiz-adv-x="559" 
d="M128 552l66 141h183l64 -141h-99l-57 77l-57 -77h-100zM286 -10q-101 0 -171 70t-70 170t70.5 170t170.5 70q101 0 169.5 -70t68.5 -170q0 -27 -4 -48h-334q14 -28 41 -45t59 -17q30 0 53 14l95 -95q-69 -49 -148 -49zM185 276h197q-12 28 -38 45.5t-58 17.5
q-33 0 -60 -17.5t-41 -45.5z" />
    <glyph glyph-name="edieresis" unicode="&#xeb;" horiz-adv-x="559" 
d="M175 526q-33 0 -56.5 23.5t-23.5 56.5q0 32 23.5 55.5t56.5 23.5q32 0 55.5 -23.5t23.5 -55.5q0 -33 -23.5 -56.5t-55.5 -23.5zM405 526q-33 0 -56.5 23.5t-23.5 56.5q0 32 23.5 55.5t56.5 23.5q32 0 55.5 -23.5t23.5 -55.5q0 -33 -23.5 -56.5t-55.5 -23.5zM286 -10
q-101 0 -171 70t-70 170t70.5 170t170.5 70q101 0 169.5 -70t68.5 -170q0 -27 -4 -48h-334q14 -28 41 -45t59 -17q30 0 53 14l95 -95q-69 -49 -148 -49zM185 276h197q-12 28 -38 45.5t-58 17.5q-33 0 -60 -17.5t-41 -45.5z" />
    <glyph glyph-name="igrave" unicode="&#xec;" horiz-adv-x="300" 
d="M99 547l-104 138h137l63 -138h-96zM70 0v460h160v-460h-160z" />
    <glyph glyph-name="iacute" unicode="&#xed;" horiz-adv-x="300" 
d="M106 547l63 149h137l-104 -149h-96zM70 0v460h160v-460h-160z" />
    <glyph glyph-name="icircumflex" unicode="&#xee;" horiz-adv-x="300" 
d="M-2 552l66 141h183l64 -141h-99l-57 77l-57 -77h-100zM70 0v460h160v-460h-160z" />
    <glyph glyph-name="idieresis" unicode="&#xef;" horiz-adv-x="300" 
d="M45 526q-33 0 -56.5 23.5t-23.5 56.5q0 32 23.5 55.5t56.5 23.5q32 0 55.5 -23.5t23.5 -55.5q0 -33 -23.5 -56.5t-55.5 -23.5zM275 526q-33 0 -56.5 23.5t-23.5 56.5q0 32 23.5 55.5t56.5 23.5q32 0 55.5 -23.5t23.5 -55.5q0 -33 -23.5 -56.5t-55.5 -23.5zM70 0v460h160
v-460h-160z" />
    <glyph glyph-name="ntilde" unicode="&#xf1;" 
d="M193 525l-91 25q16 69 44.5 101.5t78.5 33.5q28 1 66 -18.5t56 -19.5q34 0 52 45l87 -24q-16 -71 -44 -102t-78 -31q-32 0 -68 18t-55 18q-17 -1 -27.5 -11.5t-20.5 -34.5zM70 0v460h160v-3q37 14 73 14q88 0 152.5 -63.5t64.5 -157.5v-250h-150v250q0 31 -19 51t-45 20
q-33 0 -54.5 -20.5t-21.5 -50.5v-250h-160z" />
    <glyph glyph-name="ograve" unicode="&#xf2;" horiz-adv-x="572" 
d="M229 547l-104 138h137l63 -138h-96zM286 -10q-100 0 -170.5 70t-70.5 170q0 99 70.5 169.5t170.5 70.5t170.5 -70.5t70.5 -169.5q0 -100 -70.5 -170t-170.5 -70zM287 140q37 0 62.5 26.5t25.5 63.5q0 36 -26 62.5t-62 26.5q-39 0 -65 -26t-26 -63t26 -63.5t65 -26.5z" />
    <glyph glyph-name="oacute" unicode="&#xf3;" horiz-adv-x="572" 
d="M236 547l63 149h137l-104 -149h-96zM286 -10q-100 0 -170.5 70t-70.5 170q0 99 70.5 169.5t170.5 70.5t170.5 -70.5t70.5 -169.5q0 -100 -70.5 -170t-170.5 -70zM287 140q37 0 62.5 26.5t25.5 63.5q0 36 -26 62.5t-62 26.5q-39 0 -65 -26t-26 -63t26 -63.5t65 -26.5z" />
    <glyph glyph-name="ocircumflex" unicode="&#xf4;" horiz-adv-x="572" 
d="M128 552l66 141h183l64 -141h-99l-57 77l-57 -77h-100zM286 -10q-100 0 -170.5 70t-70.5 170q0 99 70.5 169.5t170.5 70.5t170.5 -70.5t70.5 -169.5q0 -100 -70.5 -170t-170.5 -70zM287 140q37 0 62.5 26.5t25.5 63.5q0 36 -26 62.5t-62 26.5q-39 0 -65 -26t-26 -63
t26 -63.5t65 -26.5z" />
    <glyph glyph-name="otilde" unicode="&#xf5;" horiz-adv-x="572" 
d="M177 525l-91 25q16 69 44.5 101.5t78.5 33.5q28 1 66 -18.5t56 -19.5q34 0 52 45l87 -24q-16 -71 -44 -102t-78 -31q-32 0 -68 18t-55 18q-17 -1 -27.5 -11.5t-20.5 -34.5zM286 -10q-100 0 -170.5 70t-70.5 170q0 99 70.5 169.5t170.5 70.5t170.5 -70.5t70.5 -169.5
q0 -100 -70.5 -170t-170.5 -70zM287 140q37 0 62.5 26.5t25.5 63.5q0 36 -26 62.5t-62 26.5q-39 0 -65 -26t-26 -63t26 -63.5t65 -26.5z" />
    <glyph glyph-name="odieresis" unicode="&#xf6;" horiz-adv-x="572" 
d="M175 526q-33 0 -56.5 23.5t-23.5 56.5q0 32 23.5 55.5t56.5 23.5q32 0 55.5 -23.5t23.5 -55.5q0 -33 -23.5 -56.5t-55.5 -23.5zM405 526q-33 0 -56.5 23.5t-23.5 56.5q0 32 23.5 55.5t56.5 23.5q32 0 55.5 -23.5t23.5 -55.5q0 -33 -23.5 -56.5t-55.5 -23.5zM286 -10
q-100 0 -170.5 70t-70.5 170q0 99 70.5 169.5t170.5 70.5t170.5 -70.5t70.5 -169.5q0 -100 -70.5 -170t-170.5 -70zM287 140q37 0 62.5 26.5t25.5 63.5q0 36 -26 62.5t-62 26.5q-39 0 -65 -26t-26 -63t26 -63.5t65 -26.5z" />
    <glyph glyph-name="oslash" unicode="&#xf8;" horiz-adv-x="587" 
d="M542 388l-39 -38q32 -56 32 -120q0 -100 -70.5 -170t-170.5 -70q-69 0 -127 36l-39 -38l-83 83l40 39q-32 56 -32 120q0 99 70.5 169.5t170.5 70.5q67 0 124 -35l41 40zM204 230v-4l95 93h-4q-39 0 -65 -26t-26 -63zM383 230v4l-97 -94h9q37 0 62.5 26.5t25.5 63.5z" />
    <glyph glyph-name="ugrave" unicode="&#xf9;" 
d="M217 547l-104 138h137l63 -138h-96zM277 -10q-88 0 -152.5 63.5t-64.5 157.5v250h150v-250q0 -31 19 -51t45 -20q33 0 54.5 20.5t21.5 50.5v250h160v-460h-160v3q-37 -14 -73 -14z" />
    <glyph glyph-name="uacute" unicode="&#xfa;" 
d="M224 547l63 149h137l-104 -149h-96zM277 -10q-88 0 -152.5 63.5t-64.5 157.5v250h150v-250q0 -31 19 -51t45 -20q33 0 54.5 20.5t21.5 50.5v250h160v-460h-160v3q-37 -14 -73 -14z" />
    <glyph glyph-name="ucircumflex" unicode="&#xfb;" 
d="M116 552l66 141h183l64 -141h-99l-57 77l-57 -77h-100zM277 -10q-88 0 -152.5 63.5t-64.5 157.5v250h150v-250q0 -31 19 -51t45 -20q33 0 54.5 20.5t21.5 50.5v250h160v-460h-160v3q-37 -14 -73 -14z" />
    <glyph glyph-name="udieresis" unicode="&#xfc;" 
d="M163 526q-33 0 -56.5 23.5t-23.5 56.5q0 32 23.5 55.5t56.5 23.5q32 0 55.5 -23.5t23.5 -55.5q0 -33 -23.5 -56.5t-55.5 -23.5zM393 526q-33 0 -56.5 23.5t-23.5 56.5q0 32 23.5 55.5t56.5 23.5q32 0 55.5 -23.5t23.5 -55.5q0 -33 -23.5 -56.5t-55.5 -23.5zM277 -10
q-88 0 -152.5 63.5t-64.5 157.5v250h150v-250q0 -31 19 -51t45 -20q33 0 54.5 20.5t21.5 50.5v250h160v-460h-160v3q-37 -14 -73 -14z" />
    <glyph glyph-name="yacute" unicode="&#xfd;" horiz-adv-x="583" 
d="M432 696l-104 -149h-96l63 149h137zM353 460h160v-502q0 -110 -72.5 -185t-188.5 -75h-109v161h112q47 0 72.5 26.5t25.5 72.5v45q-41 -13 -75 -13q-88 0 -153 64t-65 159v247h151v-247q0 -31 19.5 -50.5t45.5 -19.5q33 0 55 20t22 50v247z" />
    <glyph glyph-name="thorn" unicode="&#xfe;" horiz-adv-x="600" 
d="M28 -291v887h160v-164q60 38 119 38q96 0 168 -68.5t72 -174.5q0 -101 -70.5 -169t-169.5 -68q-62 0 -119 34v-315h-160zM308 141q36 0 62 26.5t26 62.5q0 37 -25.5 63.5t-62.5 26.5q-39 0 -65 -26.5t-26 -63.5t26 -63t65 -26z" />
    <glyph glyph-name="ydieresis" unicode="&#xff;" horiz-adv-x="583" 
d="M171 526q-33 0 -56.5 23.5t-23.5 56.5q0 32 23.5 55.5t56.5 23.5q32 0 55.5 -23.5t23.5 -55.5q0 -33 -23.5 -56.5t-55.5 -23.5zM401 526q-33 0 -56.5 23.5t-23.5 56.5q0 32 23.5 55.5t56.5 23.5q32 0 55.5 -23.5t23.5 -55.5q0 -33 -23.5 -56.5t-55.5 -23.5zM353 460h160
v-502q0 -110 -72.5 -185t-188.5 -75h-109v161h112q47 0 72.5 26.5t25.5 72.5v45q-41 -13 -75 -13q-88 0 -153 64t-65 159v247h151v-247q0 -31 19.5 -50.5t45.5 -19.5q33 0 55 20t22 50v247z" />
    <glyph glyph-name="Amacron" unicode="&#x100;" horiz-adv-x="831" 
d="M231 815v149h370v-149h-370zM20 0l350 750h88l353 -750h-197l-46 98h-307l-45 -98h-196zM338 264h153l-76 165z" />
    <glyph glyph-name="amacron" unicode="&#x101;" horiz-adv-x="630" 
d="M485 685v-149h-370v149h370zM407 460h163v-460h-163v22q-55 -32 -120 -32q-101 0 -171.5 70t-70.5 170t70.5 170t171.5 70q65 0 120 -32v22zM287 138q37 0 61.5 26t24.5 64q0 37 -25 63t-61 26t-62.5 -26t-26.5 -63t26.5 -63.5t62.5 -26.5z" />
    <glyph glyph-name="Abreve" unicode="&#x102;" horiz-adv-x="831" 
d="M408 814q-80 0 -130.5 41.5t-57.5 113.5h99q19 -65 89 -65t89 65h99q-7 -72 -57.5 -113.5t-130.5 -41.5zM20 0l350 750h88l353 -750h-197l-46 98h-307l-45 -98h-196zM338 264h153l-76 165z" />
    <glyph glyph-name="abreve" unicode="&#x103;" horiz-adv-x="630" 
d="M292 535q-80 0 -130.5 41.5t-57.5 113.5h99q19 -65 89 -65t89 65h99q-7 -72 -57.5 -113.5t-130.5 -41.5zM407 460h163v-460h-163v22q-55 -32 -120 -32q-101 0 -171.5 70t-70.5 170t70.5 170t171.5 70q65 0 120 -32v22zM287 138q37 0 61.5 26t24.5 64q0 37 -25 63t-61 26
t-62.5 -26t-26.5 -63t26.5 -63.5t62.5 -26.5z" />
    <glyph glyph-name="Aogonek" unicode="&#x104;" horiz-adv-x="831" 
d="M751 -36q0 -32 36 -56l-65 -65l-65 67q-29 31 -29 57q0 17 10 33h-24l-46 98h-307l-45 -98h-196l350 750h88l353 -750h-46q-14 -17 -14 -36zM338 264h153l-76 165z" />
    <glyph glyph-name="aogonek" unicode="&#x105;" horiz-adv-x="630" 
d="M570 0h-48q-14 -17 -14 -36q0 -32 36 -56l-65 -65l-65 67q-29 31 -29 57q0 22 18 43h4v12q-55 -32 -120 -32q-101 0 -171.5 70t-70.5 170t70.5 170t171.5 70q65 0 120 -32v22h163v-460zM287 138q37 0 61.5 26t24.5 64q0 37 -25 63t-61 26t-62.5 -26t-26.5 -63t26.5 -63.5
t62.5 -26.5z" />
    <glyph glyph-name="Cacute" unicode="&#x106;" horiz-adv-x="736" 
d="M353 826l63 149h137l-104 -149h-96zM425 0q-155 0 -265 110t-110 265t110 265t265 110t264 -109l-138 -139q-51 49 -126 49q-77 0 -126.5 -49.5t-49.5 -126.5t49.5 -126.5t126.5 -49.5q78 0 126 50l140 -138q-52 -52 -122.5 -81.5t-143.5 -29.5z" />
    <glyph glyph-name="cacute" unicode="&#x107;" horiz-adv-x="490" 
d="M224 547l63 149h137l-104 -149h-96zM285 -10q-99 0 -169.5 69.5t-70.5 169.5t70.5 170.5t169.5 70.5q97 0 170 -71l-106 -108q-25 27 -64 27q-37 0 -63 -26t-26 -63t26 -63.5t63 -26.5q39 0 62 27l108 -106q-72 -70 -170 -70z" />
    <glyph glyph-name="Cdotaccent" unicode="&#x10a;" horiz-adv-x="736" 
d="M402 786q-31 0 -52.5 22t-21.5 52t21.5 52t52.5 22q30 0 51.5 -22t21.5 -52t-21.5 -52t-51.5 -22zM425 0q-155 0 -265 110t-110 265t110 265t265 110t264 -109l-138 -139q-51 49 -126 49q-77 0 -126.5 -49.5t-49.5 -126.5t49.5 -126.5t126.5 -49.5q78 0 126 50l140 -138
q-52 -52 -122.5 -81.5t-143.5 -29.5z" />
    <glyph glyph-name="cdotaccent" unicode="&#x10b;" horiz-adv-x="490" 
d="M273 507q-31 0 -52.5 22t-21.5 52t21.5 52t52.5 22q30 0 51.5 -22t21.5 -52t-21.5 -52t-51.5 -22zM285 -10q-99 0 -169.5 69.5t-70.5 169.5t70.5 170.5t169.5 70.5q97 0 170 -71l-106 -108q-25 27 -64 27q-37 0 -63 -26t-26 -63t26 -63.5t63 -26.5q39 0 62 27l108 -106
q-72 -70 -170 -70z" />
    <glyph glyph-name="Ccaron" unicode="&#x10c;" horiz-adv-x="736" 
d="M309 831l-64 141h99l57 -77l57 77h100l-66 -141h-183zM425 0q-155 0 -265 110t-110 265t110 265t265 110t264 -109l-138 -139q-51 49 -126 49q-77 0 -126.5 -49.5t-49.5 -126.5t49.5 -126.5t126.5 -49.5q78 0 126 50l140 -138q-52 -52 -122.5 -81.5t-143.5 -29.5z" />
    <glyph glyph-name="ccaron" unicode="&#x10d;" horiz-adv-x="490" 
d="M180 552l-64 141h99l57 -77l57 77h100l-66 -141h-183zM285 -10q-99 0 -169.5 69.5t-70.5 169.5t70.5 170.5t169.5 70.5q97 0 170 -71l-106 -108q-25 27 -64 27q-37 0 -63 -26t-26 -63t26 -63.5t63 -26.5q39 0 62 27l108 -106q-72 -70 -170 -70z" />
    <glyph glyph-name="Dcaron" unicode="&#x10e;" horiz-adv-x="788" 
d="M269 831l-64 141h99l57 -77l57 77h100l-66 -141h-183zM85 0v750h278q155 0 265 -110t110 -265t-110 -265t-265 -110h-278zM281 194h83q74 0 126 52t52 126q0 73 -52.5 125t-125.5 52h-83v-355z" />
    <glyph glyph-name="dcaron" unicode="&#x10f;" horiz-adv-x="673" 
d="M285 -10q-96 0 -168 68.5t-72 174.5q0 101 70.5 169t169.5 68q62 0 119 -34v315h160v-751h-160v28q-60 -38 -119 -38zM634 551l-1 199h103l-59 -199h-43zM284 140q39 0 65 26.5t26 63.5t-26 63t-65 26q-36 0 -62 -26.5t-26 -62.5q0 -37 25.5 -63.5t62.5 -26.5z" />
    <glyph glyph-name="dcroat" unicode="&#x111;" horiz-adv-x="642" 
d="M662 624v-96h-98v-528h-160v28q-60 -38 -119 -38q-96 0 -168 68.5t-72 174.5q0 101 70.5 169t169.5 68q62 0 119 -34v92h-111v96h111v127h160v-127h98zM284 140q39 0 65 26.5t26 63.5t-26 63t-65 26q-36 0 -62 -26.5t-26 -62.5q0 -37 25.5 -63.5t62.5 -26.5z" />
    <glyph glyph-name="Emacron" unicode="&#x112;" horiz-adv-x="616" 
d="M144 815v149h370v-149h-370zM85 0v750h466v-163h-269v-122h238v-166h-238v-138h269v-161h-466z" />
    <glyph glyph-name="emacron" unicode="&#x113;" horiz-adv-x="559" 
d="M103 536v149h370v-149h-370zM286 -10q-101 0 -171 70t-70 170t70.5 170t170.5 70q101 0 169.5 -70t68.5 -170q0 -27 -4 -48h-334q14 -28 41 -45t59 -17q30 0 53 14l95 -95q-69 -49 -148 -49zM185 276h197q-12 28 -38 45.5t-58 17.5q-33 0 -60 -17.5t-41 -45.5z" />
    <glyph glyph-name="Ebreve" unicode="&#x114;" horiz-adv-x="616" 
d="M321 814q-80 0 -130.5 41.5t-57.5 113.5h99q19 -65 89 -65t89 65h99q-7 -72 -57.5 -113.5t-130.5 -41.5zM85 0v750h466v-163h-269v-122h238v-166h-238v-138h269v-161h-466z" />
    <glyph glyph-name="ebreve" unicode="&#x115;" horiz-adv-x="559" 
d="M280 535q-80 0 -130.5 41.5t-57.5 113.5h99q19 -65 89 -65t89 65h99q-7 -72 -57.5 -113.5t-130.5 -41.5zM286 -10q-101 0 -171 70t-70 170t70.5 170t170.5 70q101 0 169.5 -70t68.5 -170q0 -27 -4 -48h-334q14 -28 41 -45t59 -17q30 0 53 14l95 -95q-69 -49 -148 -49z
M185 276h197q-12 28 -38 45.5t-58 17.5q-33 0 -60 -17.5t-41 -45.5z" />
    <glyph glyph-name="Edotaccent" unicode="&#x116;" horiz-adv-x="616" 
d="M326 786q-31 0 -52.5 22t-21.5 52t21.5 52t52.5 22q30 0 51.5 -22t21.5 -52t-21.5 -52t-51.5 -22zM85 0v750h466v-163h-269v-122h238v-166h-238v-138h269v-161h-466z" />
    <glyph glyph-name="edotaccent" unicode="&#x117;" horiz-adv-x="559" 
d="M285 507q-31 0 -52.5 22t-21.5 52t21.5 52t52.5 22q30 0 51.5 -22t21.5 -52t-21.5 -52t-51.5 -22zM286 -10q-101 0 -171 70t-70 170t70.5 170t170.5 70q101 0 169.5 -70t68.5 -170q0 -27 -4 -48h-334q14 -28 41 -45t59 -17q30 0 53 14l95 -95q-69 -49 -148 -49zM185 276
h197q-12 28 -38 45.5t-58 17.5q-33 0 -60 -17.5t-41 -45.5z" />
    <glyph glyph-name="Eogonek" unicode="&#x118;" horiz-adv-x="616" 
d="M551 587h-269v-122h238v-166h-238v-138h269v-161h-24q-14 -17 -14 -36q0 -32 36 -56l-65 -65l-65 67q-29 31 -29 57q0 17 10 33h-315v750h466v-163z" />
    <glyph glyph-name="eogonek" unicode="&#x119;" horiz-adv-x="559" 
d="M524 230q0 -27 -4 -48h-334q14 -28 41 -45t59 -17q30 0 53 14l95 -95q-36 -25 -75 -38q-15 -16 -15 -37q0 -32 36 -56l-65 -65l-65 67q-29 31 -29 57q0 14 8 30q-80 19 -132 83.5t-52 149.5q0 100 70.5 170t170.5 70q101 0 169.5 -70t68.5 -170zM185 276h197
q-12 28 -38 45.5t-58 17.5q-33 0 -60 -17.5t-41 -45.5z" />
    <glyph glyph-name="Ecaron" unicode="&#x11a;" horiz-adv-x="616" 
d="M233 831l-64 141h99l57 -77l57 77h100l-66 -141h-183zM85 0v750h466v-163h-269v-122h238v-166h-238v-138h269v-161h-466z" />
    <glyph glyph-name="ecaron" unicode="&#x11b;" horiz-adv-x="559" 
d="M192 552l-64 141h99l57 -77l57 77h100l-66 -141h-183zM286 -10q-101 0 -171 70t-70 170t70.5 170t170.5 70q101 0 169.5 -70t68.5 -170q0 -27 -4 -48h-334q14 -28 41 -45t59 -17q30 0 53 14l95 -95q-69 -49 -148 -49zM185 276h197q-12 28 -38 45.5t-58 17.5
q-33 0 -60 -17.5t-41 -45.5z" />
    <glyph glyph-name="Gbreve" unicode="&#x11e;" horiz-adv-x="844" 
d="M418 814q-80 0 -130.5 41.5t-57.5 113.5h99q19 -65 89 -65t89 65h99q-7 -72 -57.5 -113.5t-130.5 -41.5zM424 0q-155 0 -264.5 110t-109.5 265t109.5 265t264.5 110q153 0 264 -109l-139 -138q-53 50 -125 50t-124.5 -51t-52.5 -127q0 -75 53 -126.5t124 -51.5
q44 0 83 20t62 54h-145v132h375v-28q0 -155 -110 -265t-265 -110z" />
    <glyph glyph-name="gbreve" unicode="&#x11f;" horiz-adv-x="640" 
d="M292 535q-80 0 -130.5 41.5t-57.5 113.5h99q19 -65 89 -65t89 65h99q-7 -72 -57.5 -113.5t-130.5 -41.5zM407 460h163v-502q0 -110 -72.5 -185t-188.5 -75h-109v161h112q46 0 70.5 26t24.5 73v64q-55 -32 -120 -32q-101 0 -171.5 70t-70.5 170t70.5 170t171.5 70
q65 0 120 -32v22zM287 138q37 0 61.5 26t24.5 64q0 37 -25 63t-61 26t-62.5 -26t-26.5 -63t26.5 -63.5t62.5 -26.5z" />
    <glyph glyph-name="Gdotaccent" unicode="&#x120;" horiz-adv-x="844" 
d="M423 786q-31 0 -52.5 22t-21.5 52t21.5 52t52.5 22q30 0 51.5 -22t21.5 -52t-21.5 -52t-51.5 -22zM424 0q-155 0 -264.5 110t-109.5 265t109.5 265t264.5 110q153 0 264 -109l-139 -138q-53 50 -125 50t-124.5 -51t-52.5 -127q0 -75 53 -126.5t124 -51.5q44 0 83 20
t62 54h-145v132h375v-28q0 -155 -110 -265t-265 -110z" />
    <glyph glyph-name="gdotaccent" unicode="&#x121;" horiz-adv-x="640" 
d="M297 507q-31 0 -52.5 22t-21.5 52t21.5 52t52.5 22q30 0 51.5 -22t21.5 -52t-21.5 -52t-51.5 -22zM407 460h163v-502q0 -110 -72.5 -185t-188.5 -75h-109v161h112q46 0 70.5 26t24.5 73v64q-55 -32 -120 -32q-101 0 -171.5 70t-70.5 170t70.5 170t171.5 70q65 0 120 -32
v22zM287 138q37 0 61.5 26t24.5 64q0 37 -25 63t-61 26t-62.5 -26t-26.5 -63t26.5 -63.5t62.5 -26.5z" />
    <glyph glyph-name="Gcommaaccent" unicode="&#x122;" horiz-adv-x="844" 
d="M424 0q-155 0 -264.5 110t-109.5 265t109.5 265t264.5 110q153 0 264 -109l-139 -138q-53 50 -125 50t-124.5 -51t-52.5 -127q0 -75 53 -126.5t124 -51.5q44 0 83 20t62 54h-145v132h375v-28q0 -155 -110 -265t-265 -110zM424 -319v85q-34 0 -57 23t-23 56t23 56t56 23
t56.5 -23t23.5 -56q0 -95 -79 -164z" />
    <glyph glyph-name="gcommaaccent" unicode="&#x123;" horiz-adv-x="640" 
d="M299 505q-33 0 -56.5 23t-23.5 56q0 95 79 164v-85q34 0 57 -23t23 -56t-23 -56t-56 -23zM407 460h163v-502q0 -110 -72.5 -185t-188.5 -75h-109v161h112q46 0 70.5 26t24.5 73v64q-55 -32 -120 -32q-101 0 -171.5 70t-70.5 170t70.5 170t171.5 70q65 0 120 -32v22z
M287 138q37 0 61.5 26t24.5 64q0 37 -25 63t-61 26t-62.5 -26t-26.5 -63t26.5 -63.5t62.5 -26.5z" />
    <glyph glyph-name="Hbar" unicode="&#x126;" horiz-adv-x="781" 
d="M75 0v594h-45v106h45v50h197v-50h238v50h197v-50h44v-106h-44v-594h-197v286h-238v-286h-197zM272 483h238v111h-238v-111z" />
    <glyph glyph-name="hbar" unicode="&#x127;" horiz-adv-x="691" 
d="M392 470q100 0 169.5 -71.5t69.5 -186.5v-212h-150v217q0 45 -24 71.5t-65 26.5q-37 0 -60.5 -24t-23.5 -63v-228h-160v594h-78v106h78v66h160v-66h131v-106h-131v-144q34 20 84 20z" />
    <glyph glyph-name="Imacron" unicode="&#x12a;" horiz-adv-x="367" 
d="M1 815v149h370v-149h-370zM85 0v750h197v-750h-197z" />
    <glyph glyph-name="imacron" unicode="&#x12b;" horiz-adv-x="300" 
d="M-27 536v149h370v-149h-370zM70 0v460h160v-460h-160z" />
    <glyph glyph-name="Ibreve" unicode="&#x12c;" horiz-adv-x="367" 
d="M178 814q-80 0 -130.5 41.5t-57.5 113.5h99q19 -65 89 -65t89 65h99q-7 -72 -57.5 -113.5t-130.5 -41.5zM85 0v750h197v-750h-197z" />
    <glyph glyph-name="ibreve" unicode="&#x12d;" horiz-adv-x="300" 
d="M150 535q-80 0 -130.5 41.5t-57.5 113.5h99q19 -65 89 -65t89 65h99q-7 -72 -57.5 -113.5t-130.5 -41.5zM70 0v460h160v-460h-160z" />
    <glyph glyph-name="Iogonek" unicode="&#x12e;" horiz-adv-x="367" 
d="M282 0h-38q-14 -17 -14 -36q0 -32 36 -56l-65 -65l-65 67q-29 31 -29 57q0 17 10 33h-32v750h197v-750z" />
    <glyph glyph-name="iogonek" unicode="&#x12f;" horiz-adv-x="300" 
d="M155 507q-31 0 -52.5 22t-21.5 52t21.5 52t52.5 22q30 0 51.5 -22t21.5 -52t-21.5 -52t-51.5 -22zM200 -36q0 -32 36 -56l-65 -65l-65 67q-29 31 -29 57q0 17 10 33h-17v460h160v-460h-16q-14 -17 -14 -36z" />
    <glyph glyph-name="Idotaccent" unicode="&#x130;" horiz-adv-x="367" 
d="M183 786q-31 0 -52.5 22t-21.5 52t21.5 52t52.5 22q30 0 51.5 -22t21.5 -52t-21.5 -52t-51.5 -22zM85 0v750h197v-750h-197z" />
    <glyph glyph-name="dotlessi" unicode="&#x131;" horiz-adv-x="300" 
d="M70 0v460h160v-460h-160z" />
    <glyph glyph-name="Kcommaaccent" unicode="&#x136;" horiz-adv-x="856" 
d="M85 0v750h197v-286l288 286h276l-378 -377l372 -373h-282l-229 231l-47 -48v-183h-197zM404 -319v85q-34 0 -57 23t-23 56t23 56t56 23t56.5 -23t23.5 -56q0 -95 -79 -164z" />
    <glyph glyph-name="kcommaaccent" unicode="&#x137;" horiz-adv-x="594" 
d="M564 461l-235 -227l234 -234h-200l-133 134v-134h-160v750h160v-417l126 128h208zM302 -76q33 0 56.5 -23t23.5 -56q0 -95 -79 -164v85q-34 0 -57 23t-23 56t23 56t56 23z" />
    <glyph glyph-name="Lacute" unicode="&#x139;" horiz-adv-x="617" 
d="M144 826l63 149h137l-104 -149h-96zM85 0v750h197v-552h270v-198h-467z" />
    <glyph glyph-name="lacute" unicode="&#x13a;" horiz-adv-x="300" 
d="M99 789l63 149h137l-104 -149h-96zM70 0v750h160v-750h-160z" />
    <glyph glyph-name="Lcommaaccent" unicode="&#x13b;" horiz-adv-x="617" 
d="M85 0v750h197v-552h270v-198h-467zM303 -319v85q-34 0 -57 23t-23 56t23 56t56 23t56.5 -23t23.5 -56q0 -95 -79 -164z" />
    <glyph glyph-name="lcommaaccent" unicode="&#x13c;" horiz-adv-x="300" 
d="M70 0v750h160v-750h-160zM148 -319v85q-34 0 -57 23t-23 56t23 56t56 23t56.5 -23t23.5 -56q0 -95 -79 -164z" />
    <glyph glyph-name="Lcaron" unicode="&#x13d;" horiz-adv-x="617" 
d="M85 0v750h197v-552h270v-198h-467zM392 551l-1 199h103l-59 -199h-43z" />
    <glyph glyph-name="lcaron" unicode="&#x13e;" horiz-adv-x="322" 
d="M70 0v750h160v-750h-160zM300 551l-1 199h103l-59 -199h-43z" />
    <glyph glyph-name="Ldot" unicode="&#x13f;" horiz-adv-x="617" 
d="M85 0v750h197v-552h270v-198h-467zM455 386q-33 0 -56 23t-23 56t23 56t56 23t56.5 -23t23.5 -56t-23.5 -56t-56.5 -23z" />
    <glyph glyph-name="ldot" unicode="&#x140;" horiz-adv-x="375" 
d="M70 0v750h160v-750h-160zM342 346q-31 0 -52.5 22t-21.5 52t21.5 52t52.5 22q30 0 51.5 -22t21.5 -52t-21.5 -52t-51.5 -22z" />
    <glyph glyph-name="Lslash" unicode="&#x141;" horiz-adv-x="736" 
d="M204 0v311l-129 -108v144l129 108v295h197v-131l109 91v-144l-109 -91v-277h270v-198h-467z" />
    <glyph glyph-name="lslash" unicode="&#x142;" horiz-adv-x="300" 
d="M298 650v-144l-71 -59v-447h-160v314l-69 -58v144l69 58v292h160v-159z" />
    <glyph glyph-name="Nacute" unicode="&#x143;" horiz-adv-x="782" 
d="M341 826l63 149h137l-104 -149h-96zM75 0v750h80l355 -354v354h197v-750h-81l-354 355v-355h-197z" />
    <glyph glyph-name="nacute" unicode="&#x144;" 
d="M252 547l63 149h137l-104 -149h-96zM70 0v460h160v-3q37 14 73 14q88 0 152.5 -63.5t64.5 -157.5v-250h-150v250q0 31 -19 51t-45 20q-33 0 -54.5 -20.5t-21.5 -50.5v-250h-160z" />
    <glyph glyph-name="Ncommaaccent" unicode="&#x145;" horiz-adv-x="782" 
d="M75 0v750h80l355 -354v354h197v-750h-81l-354 355v-355h-197zM415 -327v85q-34 0 -57 23t-23 56t23 56t56 23t56.5 -23t23.5 -56q0 -95 -79 -164z" />
    <glyph glyph-name="ncommaaccent" unicode="&#x146;" 
d="M70 0v460h160v-3q37 14 73 14q88 0 152.5 -63.5t64.5 -157.5v-250h-150v250q0 31 -19 51t-45 20q-33 0 -54.5 -20.5t-21.5 -50.5v-250h-160zM295 -319v85q-34 0 -57 23t-23 56t23 56t56 23t56.5 -23t23.5 -56q0 -95 -79 -164z" />
    <glyph glyph-name="Ncaron" unicode="&#x147;" horiz-adv-x="782" 
d="M297 831l-64 141h99l57 -77l57 77h100l-66 -141h-183zM75 0v750h80l355 -354v354h197v-750h-81l-354 355v-355h-197z" />
    <glyph glyph-name="ncaron" unicode="&#x148;" 
d="M208 552l-64 141h99l57 -77l57 77h100l-66 -141h-183zM70 0v460h160v-3q37 14 73 14q88 0 152.5 -63.5t64.5 -157.5v-250h-150v250q0 31 -19 51t-45 20q-33 0 -54.5 -20.5t-21.5 -50.5v-250h-160z" />
    <glyph glyph-name="Omacron" unicode="&#x14c;" horiz-adv-x="849" 
d="M242 815v149h370v-149h-370zM799 374q0 -155 -110 -264.5t-265 -109.5t-264.5 109.5t-109.5 264.5t109.5 265.5t264.5 110.5t265 -110.5t110 -265.5zM603 375q0 74 -52.5 126.5t-126.5 52.5t-126 -52.5t-52 -126.5t52.5 -126.5t125.5 -52.5q74 0 126.5 52.5t52.5 126.5z
" />
    <glyph glyph-name="omacron" unicode="&#x14d;" horiz-adv-x="572" 
d="M103 536v149h370v-149h-370zM286 -10q-100 0 -170.5 70t-70.5 170q0 99 70.5 169.5t170.5 70.5t170.5 -70.5t70.5 -169.5q0 -100 -70.5 -170t-170.5 -70zM287 140q37 0 62.5 26.5t25.5 63.5q0 36 -26 62.5t-62 26.5q-39 0 -65 -26t-26 -63t26 -63.5t65 -26.5z" />
    <glyph glyph-name="Obreve" unicode="&#x14e;" horiz-adv-x="849" 
d="M419 814q-80 0 -130.5 41.5t-57.5 113.5h99q19 -65 89 -65t89 65h99q-7 -72 -57.5 -113.5t-130.5 -41.5zM799 374q0 -155 -110 -264.5t-265 -109.5t-264.5 109.5t-109.5 264.5t109.5 265.5t264.5 110.5t265 -110.5t110 -265.5zM603 375q0 74 -52.5 126.5t-126.5 52.5
t-126 -52.5t-52 -126.5t52.5 -126.5t125.5 -52.5q74 0 126.5 52.5t52.5 126.5z" />
    <glyph glyph-name="obreve" unicode="&#x14f;" horiz-adv-x="572" 
d="M280 535q-80 0 -130.5 41.5t-57.5 113.5h99q19 -65 89 -65t89 65h99q-7 -72 -57.5 -113.5t-130.5 -41.5zM286 -10q-100 0 -170.5 70t-70.5 170q0 99 70.5 169.5t170.5 70.5t170.5 -70.5t70.5 -169.5q0 -100 -70.5 -170t-170.5 -70zM287 140q37 0 62.5 26.5t25.5 63.5
q0 36 -26 62.5t-62 26.5q-39 0 -65 -26t-26 -63t26 -63.5t65 -26.5z" />
    <glyph glyph-name="Ohungarumlaut" unicode="&#x150;" horiz-adv-x="849" 
d="M276 826l63 138h137l-104 -138h-96zM463 826l63 138h137l-104 -138h-96zM799 374q0 -155 -110 -264.5t-265 -109.5t-264.5 109.5t-109.5 264.5t109.5 265.5t264.5 110.5t265 -110.5t110 -265.5zM603 375q0 74 -52.5 126.5t-126.5 52.5t-126 -52.5t-52 -126.5t52.5 -126.5
t125.5 -52.5q74 0 126.5 52.5t52.5 126.5z" />
    <glyph glyph-name="ohungarumlaut" unicode="&#x151;" horiz-adv-x="572" 
d="M137 547l63 138h137l-104 -138h-96zM324 547l63 138h137l-104 -138h-96zM286 -10q-100 0 -170.5 70t-70.5 170q0 99 70.5 169.5t170.5 70.5t170.5 -70.5t70.5 -169.5q0 -100 -70.5 -170t-170.5 -70zM287 140q37 0 62.5 26.5t25.5 63.5q0 36 -26 62.5t-62 26.5
q-39 0 -65 -26t-26 -63t26 -63.5t65 -26.5z" />
    <glyph glyph-name="OE" unicode="&#x152;" horiz-adv-x="1047" 
d="M424 0q-155 0 -264.5 109.5t-109.5 264.5q0 156 109.5 266.5t264.5 110.5h558v-164h-269v-122h238v-166h-238v-138h269v-161h-558zM434 163h82v422h-69q-93 0 -153.5 -63.5t-60.5 -146.5q0 -82 58.5 -147t142.5 -65z" />
    <glyph glyph-name="oe" unicode="&#x153;" horiz-adv-x="896" 
d="M286 -10q-100 0 -170.5 70t-70.5 170q0 99 70.5 169.5t170.5 70.5q98 0 168 -68q70 68 169 68q101 0 169.5 -70t68.5 -170q0 -27 -4 -48h-334q14 -28 41 -45t59 -17q30 0 53 14l95 -95q-69 -49 -148 -49q-99 0 -169 68q-70 -68 -168 -68zM523 276h196q-12 28 -38 45.5
t-58 17.5q-69 0 -100 -63zM287 140q37 0 62.5 26.5t25.5 63.5q0 36 -26 62.5t-62 26.5q-39 0 -65 -26t-26 -63t26 -63.5t65 -26.5z" />
    <glyph glyph-name="Racute" unicode="&#x154;" horiz-adv-x="777" 
d="M269 826l63 149h137l-104 -149h-96zM85 0v750h316q114 0 195 -81t81 -195q0 -120 -89 -202l159 -272h-227l-116 199h-122v-199h-197zM282 369h122q45 0 76.5 31t31.5 76t-31.5 76.5t-76.5 31.5h-122v-215z" />
    <glyph glyph-name="racute" unicode="&#x155;" horiz-adv-x="499" 
d="M202 547l63 149h137l-104 -149h-96zM70 0v460h160v-7q42 17 91 17q98 0 168 -72l-107 -104q-27 26 -66 26q-36 0 -61 -25.5t-25 -63.5v-231h-160z" />
    <glyph glyph-name="Rcommaaccent" unicode="&#x156;" horiz-adv-x="777" 
d="M85 0v750h316q114 0 195 -81t81 -195q0 -120 -89 -202l159 -272h-227l-116 199h-122v-199h-197zM282 369h122q45 0 76.5 31t31.5 76t-31.5 76.5t-76.5 31.5h-122v-215zM179 -319v85q-34 0 -57 23t-23 56t23 56t56 23t56.5 -23t23.5 -56q0 -95 -79 -164z" />
    <glyph glyph-name="rcommaaccent" unicode="&#x157;" horiz-adv-x="499" 
d="M70 0v460h160v-7q42 17 91 17q98 0 168 -72l-107 -104q-27 26 -66 26q-36 0 -61 -25.5t-25 -63.5v-231h-160zM149 -319v85q-34 0 -57 23t-23 56t23 56t56 23t56.5 -23t23.5 -56q0 -95 -79 -164z" />
    <glyph glyph-name="Rcaron" unicode="&#x158;" horiz-adv-x="777" 
d="M225 831l-64 141h99l57 -77l57 77h100l-66 -141h-183zM85 0v750h316q114 0 195 -81t81 -195q0 -120 -89 -202l159 -272h-227l-116 199h-122v-199h-197zM282 369h122q45 0 76.5 31t31.5 76t-31.5 76.5t-76.5 31.5h-122v-215z" />
    <glyph glyph-name="rcaron" unicode="&#x159;" horiz-adv-x="499" 
d="M158 552l-64 141h99l57 -77l57 77h100l-66 -141h-183zM70 0v460h160v-7q42 17 91 17q98 0 168 -72l-107 -104q-27 26 -66 26q-36 0 -61 -25.5t-25 -63.5v-231h-160z" />
    <glyph glyph-name="Sacute" unicode="&#x15a;" horiz-adv-x="624" 
d="M253 826l63 149h137l-104 -149h-96zM306 0q-120 0 -198 67.5t-78 161.5h200q0 -25 20.5 -41.5t52.5 -16.5q31 0 51 16t20 42q0 27 -21.5 43t-51.5 16q-110 0 -190 68t-80 163q0 97 77 164t195 67q113 0 192 -67t79 -163h-199q0 24 -21 41t-51 17q-32 0 -52 -16t-20 -42
t20 -42.5t52 -16.5q114 0 192.5 -67.5t78.5 -163.5t-78 -163t-190 -67z" />
    <glyph glyph-name="sacute" unicode="&#x15b;" horiz-adv-x="418" 
d="M159 547l63 149h137l-104 -149h-96zM211 -10q-80 0 -130.5 44.5t-50.5 102.5h132q0 -16 13.5 -26.5t36.5 -10.5q21 0 33.5 10t12.5 27q0 37 -49 37q-69 0 -123.5 41t-54.5 105q0 68 53.5 109t124.5 41q70 0 125 -43t55 -105h-131q0 14 -13 25t-36 11q-19 0 -32.5 -9.5
t-13.5 -26.5q0 -16 14.5 -26.5t36.5 -10.5q24 0 52 -8t56.5 -24t47.5 -47t19 -72q0 -62 -55 -103t-123 -41z" />
    <glyph glyph-name="Scedilla" unicode="&#x15e;" horiz-adv-x="624" 
d="M303 461q114 0 192.5 -67.5t78.5 -163.5q0 -83 -59.5 -145.5t-150.5 -79.5l-56 -121h-133l89 118q-104 13 -169 77.5t-65 149.5h200q0 -25 20.5 -41.5t52.5 -16.5q31 0 51 16t20 42q0 27 -21.5 43t-51.5 16q-110 0 -190 68t-80 163q0 97 77 164t195 67q113 0 192 -67
t79 -163h-199q0 24 -21 41t-51 17q-32 0 -52 -16t-20 -42t20 -42.5t52 -16.5z" />
    <glyph glyph-name="scedilla" unicode="&#x15f;" horiz-adv-x="418" 
d="M214 285q24 0 52 -8t56.5 -24t47.5 -47t19 -72q0 -46 -31.5 -81t-79.5 -52l-54 -117h-133l82 109q-65 11 -104 52.5t-39 91.5h132q0 -16 13.5 -26.5t36.5 -10.5q21 0 33.5 10t12.5 27q0 37 -49 37q-69 0 -123.5 41t-54.5 105q0 68 53.5 109t124.5 41q70 0 125 -43
t55 -105h-131q0 14 -13 25t-36 11q-19 0 -32.5 -9.5t-13.5 -26.5q0 -16 14.5 -26.5t36.5 -10.5z" />
    <glyph glyph-name="Scaron" unicode="&#x160;" horiz-adv-x="624" 
d="M209 831l-64 141h99l57 -77l57 77h100l-66 -141h-183zM306 0q-120 0 -198 67.5t-78 161.5h200q0 -25 20.5 -41.5t52.5 -16.5q31 0 51 16t20 42q0 27 -21.5 43t-51.5 16q-110 0 -190 68t-80 163q0 97 77 164t195 67q113 0 192 -67t79 -163h-199q0 24 -21 41t-51 17
q-32 0 -52 -16t-20 -42t20 -42.5t52 -16.5q114 0 192.5 -67.5t78.5 -163.5t-78 -163t-190 -67z" />
    <glyph glyph-name="scaron" unicode="&#x161;" horiz-adv-x="418" 
d="M115 552l-64 141h99l57 -77l57 77h100l-66 -141h-183zM211 -10q-80 0 -130.5 44.5t-50.5 102.5h132q0 -16 13.5 -26.5t36.5 -10.5q21 0 33.5 10t12.5 27q0 37 -49 37q-69 0 -123.5 41t-54.5 105q0 68 53.5 109t124.5 41q70 0 125 -43t55 -105h-131q0 14 -13 25t-36 11
q-19 0 -32.5 -9.5t-13.5 -26.5q0 -16 14.5 -26.5t36.5 -10.5q24 0 52 -8t56.5 -24t47.5 -47t19 -72q0 -62 -55 -103t-123 -41z" />
    <glyph glyph-name="uni0162" unicode="&#x162;" horiz-adv-x="691" 
d="M50 751h591v-196h-199v-555h-49l-53 -116h-133l87 116h-49v555h-195v196z" />
    <glyph glyph-name="uni0163" unicode="&#x163;" horiz-adv-x="378" 
d="M338 460v-121h-79v-339h-22l-53 -116h-133l87 116h-39v339h-79v121h79v138h160v-138h79z" />
    <glyph glyph-name="Tcaron" unicode="&#x164;" horiz-adv-x="691" 
d="M252 831l-64 141h99l57 -77l57 77h100l-66 -141h-183zM245 0v555h-195v196h591v-196h-199v-555h-197z" />
    <glyph glyph-name="tcaron" unicode="&#x165;" horiz-adv-x="470" 
d="M328 501l-1 199h103l-59 -199h-43zM99 0v339h-79v121h79v138h160v-138h79v-121h-79v-339h-160z" />
    <glyph glyph-name="Umacron" unicode="&#x16a;" horiz-adv-x="742" 
d="M188 815v149h370v-149h-370zM371 0q-124 0 -210 86t-86 210v454h198v-451q0 -41 28.5 -69.5t69.5 -28.5t69.5 28.5t28.5 69.5v451h198v-454q0 -123 -86.5 -209.5t-209.5 -86.5z" />
    <glyph glyph-name="umacron" unicode="&#x16b;" 
d="M91 536v149h370v-149h-370zM277 -10q-88 0 -152.5 63.5t-64.5 157.5v250h150v-250q0 -31 19 -51t45 -20q33 0 54.5 20.5t21.5 50.5v250h160v-460h-160v3q-37 -14 -73 -14z" />
    <glyph glyph-name="Ubreve" unicode="&#x16c;" horiz-adv-x="742" 
d="M365 814q-80 0 -130.5 41.5t-57.5 113.5h99q19 -65 89 -65t89 65h99q-7 -72 -57.5 -113.5t-130.5 -41.5zM371 0q-124 0 -210 86t-86 210v454h198v-451q0 -41 28.5 -69.5t69.5 -28.5t69.5 28.5t28.5 69.5v451h198v-454q0 -123 -86.5 -209.5t-209.5 -86.5z" />
    <glyph glyph-name="ubreve" unicode="&#x16d;" 
d="M268 535q-80 0 -130.5 41.5t-57.5 113.5h99q19 -65 89 -65t89 65h99q-7 -72 -57.5 -113.5t-130.5 -41.5zM277 -10q-88 0 -152.5 63.5t-64.5 157.5v250h150v-250q0 -31 19 -51t45 -20q33 0 54.5 20.5t21.5 50.5v250h160v-460h-160v3q-37 -14 -73 -14z" />
    <glyph glyph-name="Uring" unicode="&#x16e;" horiz-adv-x="742" 
d="M369 773q-42 0 -71.5 30t-29.5 71t29.5 71t71.5 30q41 0 70.5 -30t29.5 -71t-29.5 -71t-70.5 -30zM369 845q11 0 19.5 8.5t8.5 20.5t-8.5 20.5t-19.5 8.5q-12 0 -20.5 -8.5t-8.5 -20.5t8.5 -20.5t20.5 -8.5zM371 0q-124 0 -210 86t-86 210v454h198v-451q0 -41 28.5 -69.5
t69.5 -28.5t69.5 28.5t28.5 69.5v451h198v-454q0 -123 -86.5 -209.5t-209.5 -86.5z" />
    <glyph glyph-name="uring" unicode="&#x16f;" 
d="M272 494q-42 0 -71.5 30t-29.5 71t29.5 71t71.5 30q41 0 70.5 -30t29.5 -71t-29.5 -71t-70.5 -30zM272 566q11 0 19.5 8.5t8.5 20.5t-8.5 20.5t-19.5 8.5q-12 0 -20.5 -8.5t-8.5 -20.5t8.5 -20.5t20.5 -8.5zM277 -10q-88 0 -152.5 63.5t-64.5 157.5v250h150v-250
q0 -31 19 -51t45 -20q33 0 54.5 20.5t21.5 50.5v250h160v-460h-160v3q-37 -14 -73 -14z" />
    <glyph glyph-name="Uhungarumlaut" unicode="&#x170;" horiz-adv-x="742" 
d="M222 826l63 138h137l-104 -138h-96zM409 826l63 138h137l-104 -138h-96zM371 0q-124 0 -210 86t-86 210v454h198v-451q0 -41 28.5 -69.5t69.5 -28.5t69.5 28.5t28.5 69.5v451h198v-454q0 -123 -86.5 -209.5t-209.5 -86.5z" />
    <glyph glyph-name="uhungarumlaut" unicode="&#x171;" 
d="M125 547l63 138h137l-104 -138h-96zM312 547l63 138h137l-104 -138h-96zM277 -10q-88 0 -152.5 63.5t-64.5 157.5v250h150v-250q0 -31 19 -51t45 -20q33 0 54.5 20.5t21.5 50.5v250h160v-460h-160v3q-37 -14 -73 -14z" />
    <glyph glyph-name="Uogonek" unicode="&#x172;" horiz-adv-x="742" 
d="M469 750h198v-454q0 -107 -66.5 -188t-168.5 -102q-19 -21 -19 -42q0 -32 36 -56l-65 -65l-65 67q-29 31 -29 57q0 21 16 40q-101 22 -166 102.5t-65 186.5v454h198v-451q0 -41 28.5 -69.5t69.5 -28.5t69.5 28.5t28.5 69.5v451z" />
    <glyph glyph-name="uogonek" unicode="&#x173;" 
d="M476 -36q0 -32 36 -56l-65 -65l-65 67q-29 31 -29 57q0 17 11 34h-14v3q-37 -14 -73 -14q-88 0 -152.5 63.5t-64.5 157.5v250h150v-250q0 -31 19 -51t45 -20q33 0 54.5 20.5t21.5 50.5v250h160v-460h-19q-15 -18 -15 -37z" />
    <glyph glyph-name="Wcircumflex" unicode="&#x174;" horiz-adv-x="1057" 
d="M371 831l66 141h183l64 -141h-99l-57 77l-57 -77h-100zM256 0l-246 750h200l146 -447l73 221h199l73 -220l146 446h200l-247 -750h-199l-72 222l-74 -222h-199z" />
    <glyph glyph-name="wcircumflex" unicode="&#x175;" horiz-adv-x="810" 
d="M252 552l66 141h183l64 -141h-99l-57 77l-57 -77h-100zM222 0l-217 460h179l95 -205l95 205h64l95 -205l95 205h177l-213 -460h-115l-71 150l-69 -150h-115z" />
    <glyph glyph-name="Ycircumflex" unicode="&#x176;" horiz-adv-x="763" 
d="M223 831l66 141h183l64 -141h-99l-57 77l-57 -77h-100zM284 0v276l-274 474h227l144 -250l145 250h227l-274 -474v-276h-195z" />
    <glyph glyph-name="ycircumflex" unicode="&#x177;" horiz-adv-x="583" 
d="M281 629l-57 -77h-100l66 141h183l64 -141h-99zM353 460h160v-502q0 -110 -72.5 -185t-188.5 -75h-109v161h112q47 0 72.5 26.5t25.5 72.5v45q-41 -13 -75 -13q-88 0 -153 64t-65 159v247h151v-247q0 -31 19.5 -50.5t45.5 -19.5q33 0 55 20t22 50v247z" />
    <glyph glyph-name="Ydieresis" unicode="&#x178;" horiz-adv-x="763" 
d="M270 805q-33 0 -56.5 23.5t-23.5 56.5q0 32 23.5 55.5t56.5 23.5q32 0 55.5 -23.5t23.5 -55.5q0 -33 -23.5 -56.5t-55.5 -23.5zM500 805q-33 0 -56.5 23.5t-23.5 56.5q0 32 23.5 55.5t56.5 23.5q32 0 55.5 -23.5t23.5 -55.5q0 -33 -23.5 -56.5t-55.5 -23.5zM284 0v276
l-274 474h227l144 -250l145 250h227l-274 -474v-276h-195z" />
    <glyph glyph-name="Zacute" unicode="&#x179;" horiz-adv-x="710" 
d="M305 826l63 149h137l-104 -149h-96zM25 0l319 552h-320v198h661l-319 -553h320v-197h-661z" />
    <glyph glyph-name="zacute" unicode="&#x17a;" horiz-adv-x="579" 
d="M245 547l63 149h137l-104 -149h-96zM35 0l209 299h-214v161h519l-208 -298h191v-162h-497z" />
    <glyph glyph-name="Zdotaccent" unicode="&#x17b;" horiz-adv-x="710" 
d="M354 786q-31 0 -52.5 22t-21.5 52t21.5 52t52.5 22q30 0 51.5 -22t21.5 -52t-21.5 -52t-51.5 -22zM25 0l319 552h-320v198h661l-319 -553h320v-197h-661z" />
    <glyph glyph-name="zdotaccent" unicode="&#x17c;" horiz-adv-x="579" 
d="M294 507q-31 0 -52.5 22t-21.5 52t21.5 52t52.5 22q30 0 51.5 -22t21.5 -52t-21.5 -52t-51.5 -22zM35 0l209 299h-214v161h519l-208 -298h191v-162h-497z" />
    <glyph glyph-name="Zcaron" unicode="&#x17d;" horiz-adv-x="710" 
d="M261 831l-64 141h99l57 -77l57 77h100l-66 -141h-183zM25 0l319 552h-320v198h661l-319 -553h320v-197h-661z" />
    <glyph glyph-name="zcaron" unicode="&#x17e;" horiz-adv-x="579" 
d="M201 552l-64 141h99l57 -77l57 77h100l-66 -141h-183zM35 0l209 299h-214v161h519l-208 -298h191v-162h-497z" />
    <glyph glyph-name="uni01CD" unicode="&#x1cd;" horiz-adv-x="831" 
d="M320 831l-64 141h99l57 -77l57 77h100l-66 -141h-183zM20 0l350 750h88l353 -750h-197l-46 98h-307l-45 -98h-196zM338 264h153l-76 165z" />
    <glyph glyph-name="uni01CE" unicode="&#x1ce;" horiz-adv-x="630" 
d="M387 552h-183l-64 141h99l57 -77l57 77h100zM407 460h163v-460h-163v22q-55 -32 -120 -32q-101 0 -171.5 70t-70.5 170t70.5 170t171.5 70q65 0 120 -32v22zM287 138q37 0 61.5 26t24.5 64q0 37 -25 63t-61 26t-62.5 -26t-26.5 -63t26.5 -63.5t62.5 -26.5z" />
    <glyph glyph-name="uni01CF" unicode="&#x1cf;" horiz-adv-x="367" 
d="M90 831l-64 141h99l57 -77l57 77h100l-66 -141h-183zM85 0v750h197v-750h-197z" />
    <glyph glyph-name="uni01D0" unicode="&#x1d0;" horiz-adv-x="300" 
d="M62 552l-64 141h99l57 -77l57 77h100l-66 -141h-183zM70 0v460h160v-460h-160z" />
    <glyph glyph-name="uni01D1" unicode="&#x1d1;" horiz-adv-x="849" 
d="M331 831l-64 141h99l57 -77l57 77h100l-66 -141h-183zM799 374q0 -155 -110 -264.5t-265 -109.5t-264.5 109.5t-109.5 264.5t109.5 265.5t264.5 110.5t265 -110.5t110 -265.5zM603 375q0 74 -52.5 126.5t-126.5 52.5t-126 -52.5t-52 -126.5t52.5 -126.5t125.5 -52.5
q74 0 126.5 52.5t52.5 126.5z" />
    <glyph glyph-name="uni01D2" unicode="&#x1d2;" horiz-adv-x="572" 
d="M192 552l-64 141h99l57 -77l57 77h100l-66 -141h-183zM286 -10q-100 0 -170.5 70t-70.5 170q0 99 70.5 169.5t170.5 70.5t170.5 -70.5t70.5 -169.5q0 -100 -70.5 -170t-170.5 -70zM287 140q37 0 62.5 26.5t25.5 63.5q0 36 -26 62.5t-62 26.5q-39 0 -65 -26t-26 -63
t26 -63.5t65 -26.5z" />
    <glyph glyph-name="uni01D3" unicode="&#x1d3;" horiz-adv-x="742" 
d="M277 831l-64 141h99l57 -77l57 77h100l-66 -141h-183zM371 0q-124 0 -210 86t-86 210v454h198v-451q0 -41 28.5 -69.5t69.5 -28.5t69.5 28.5t28.5 69.5v451h198v-454q0 -123 -86.5 -209.5t-209.5 -86.5z" />
    <glyph glyph-name="uni01D4" unicode="&#x1d4;" 
d="M180 552l-64 141h99l57 -77l57 77h100l-66 -141h-183zM277 -10q-88 0 -152.5 63.5t-64.5 157.5v250h150v-250q0 -31 19 -51t45 -20q33 0 54.5 20.5t21.5 50.5v250h160v-460h-160v3q-37 -14 -73 -14z" />
    <glyph glyph-name="Aringacute" unicode="&#x1fa;" horiz-adv-x="831" 
d="M461 743l350 -743h-197l-46 98h-307l-45 -98h-196l347 744q-48 28 -48 83q0 40 28.5 68.5t68.5 28.5q9 0 13 -1l22 52h108l-65 -93q17 -25 17 -55q0 -57 -50 -84zM416 855q-12 0 -20 -8.5t-8 -19.5t8 -19.5t20 -8.5q10 0 18 8.5t8 19.5t-8 19.5t-18 8.5zM338 264h153
l-76 165z" />
    <glyph glyph-name="aringacute" unicode="&#x1fb;" horiz-adv-x="630" 
d="M407 460h163v-460h-163v22q-55 -32 -120 -32q-101 0 -171.5 70t-70.5 170q0 82 50.5 146.5t128.5 85.5q-13 21 -13 45q0 28 16.5 50.5t43.5 30.5l46 108h113l-85 -120q36 -26 36 -69q0 -28 -16 -50q18 -6 42 -19v22zM296 531q-10 0 -17 -7t-7 -17t7 -17.5t17 -7.5t17 7.5
t7 17.5t-7 17t-17 7zM287 138q37 0 61.5 26t24.5 64q0 37 -25 63t-61 26t-62.5 -26t-26.5 -63t26.5 -63.5t62.5 -26.5z" />
    <glyph glyph-name="AEacute" unicode="&#x1fc;" horiz-adv-x="1032" 
d="M617 826l63 149h137l-104 -149h-96zM20 0l438 750h509v-163h-269v-122h238v-166h-238v-138h269v-161h-466v98h-230l-54 -98h-197zM365 264h136v235z" />
    <glyph glyph-name="aeacute" unicode="&#x1fd;" horiz-adv-x="943" 
d="M432 495l63 149h137l-104 -149h-96zM287 -10q-101 0 -171.5 70t-70.5 170t70.5 170t171.5 70q65 0 120 -32v22h163v-11q48 21 100 21q101 0 169.5 -70t68.5 -170q0 -27 -4 -48h-334q14 -28 41 -45t59 -17q30 0 53 14l95 -95q-69 -49 -148 -49q-52 0 -100 21v-11h-163v22
q-55 -32 -120 -32zM570 276h196q-12 28 -38 45.5t-58 17.5q-70 0 -100 -63zM287 138q37 0 61.5 26t24.5 64q0 37 -25 63t-61 26t-62.5 -26t-26.5 -63t26.5 -63.5t62.5 -26.5z" />
    <glyph glyph-name="Oslashacute" unicode="&#x1fe;" horiz-adv-x="923" 
d="M603 975l-104 -149h-96l63 149h137zM873 696l-110 -110q65 -97 65 -212q0 -155 -110 -264.5t-265 -109.5q-114 0 -210 64l-91 -91l-102 97l93 94q-64 96 -64 210q0 155 109.5 265.5t264.5 110.5q115 0 209 -64l111 111zM275 375q0 -33 13 -66l231 233q-30 12 -66 12
q-74 0 -126 -52.5t-52 -126.5zM632 375q0 33 -13 67l-232 -233q34 -13 66 -13q74 0 126.5 52.5t52.5 126.5z" />
    <glyph glyph-name="oslashacute" unicode="&#x1ff;" horiz-adv-x="587" 
d="M444 696l-104 -149h-96l63 149h137zM542 388l-39 -38q32 -56 32 -120q0 -100 -70.5 -170t-170.5 -70q-69 0 -127 36l-39 -38l-83 83l40 39q-32 56 -32 120q0 99 70.5 169.5t170.5 70.5q67 0 124 -35l41 40zM204 230v-4l95 93h-4q-39 0 -65 -26t-26 -63zM383 230v4
l-97 -94h9q37 0 62.5 26.5t25.5 63.5z" />
    <glyph glyph-name="Scommaaccent" unicode="&#x218;" horiz-adv-x="624" 
d="M306 0q-120 0 -198 67.5t-78 161.5h200q0 -25 20.5 -41.5t52.5 -16.5q31 0 51 16t20 42q0 27 -21.5 43t-51.5 16q-110 0 -190 68t-80 163q0 97 77 164t195 67q113 0 192 -67t79 -163h-199q0 24 -21 41t-51 17q-32 0 -52 -16t-20 -42t20 -42.5t52 -16.5q114 0 192.5 -67.5
t78.5 -163.5t-78 -163t-190 -67zM314 -319v85q-34 0 -57 23t-23 56t23 56t56 23t56.5 -23t23.5 -56q0 -95 -79 -164z" />
    <glyph glyph-name="scommaaccent" unicode="&#x219;" horiz-adv-x="418" 
d="M211 -10q-80 0 -130.5 44.5t-50.5 102.5h132q0 -16 13.5 -26.5t36.5 -10.5q21 0 33.5 10t12.5 27q0 37 -49 37q-69 0 -123.5 41t-54.5 105q0 68 53.5 109t124.5 41q70 0 125 -43t55 -105h-131q0 14 -13 25t-36 11q-19 0 -32.5 -9.5t-13.5 -26.5q0 -16 14.5 -26.5
t36.5 -10.5q24 0 52 -8t56.5 -24t47.5 -47t19 -72q0 -62 -55 -103t-123 -41zM230 -319v85q-34 0 -57 23t-23 56t23 56t56 23t56.5 -23t23.5 -56q0 -95 -79 -164z" />
    <glyph glyph-name="uni021A" unicode="&#x21a;" horiz-adv-x="691" 
d="M245 0v555h-195v196h591v-196h-199v-555h-197zM346 -319v85q-34 0 -57 23t-23 56t23 56t56 23t56.5 -23t23.5 -56q0 -95 -79 -164z" />
    <glyph glyph-name="uni021B" unicode="&#x21b;" horiz-adv-x="378" 
d="M259 460h79v-121h-79v-339h-160v339h-79v121h79v138h160v-138zM189 -76q33 0 56.5 -23t23.5 -56q0 -95 -79 -164v85q-34 0 -57 23t-23 56t23 56t56 23z" />
    <glyph glyph-name="uni0259" unicode="&#x259;" horiz-adv-x="559" 
d="M273 470q101 0 171 -70t70 -170t-70.5 -170t-170.5 -70q-101 0 -169.5 70t-68.5 170q0 27 4 48h334q-14 28 -41 45t-59 17q-30 0 -53 -14l-95 95q69 49 148 49zM374 184h-197q12 -28 38 -45.5t58 -17.5q33 0 60 17.5t41 45.5z" />
    <glyph glyph-name="circumflex" unicode="&#x2c6;" horiz-adv-x="353" 
d="M20 831l66 141h183l64 -141h-99l-57 77l-57 -77h-100z" />
    <glyph glyph-name="caron" unicode="&#x2c7;" horiz-adv-x="353" 
d="M84 831l-64 141h99l57 -77l57 77h100l-66 -141h-183z" />
    <glyph glyph-name="breve" unicode="&#x2d8;" horiz-adv-x="416" 
d="M208 814q-80 0 -130.5 41.5t-57.5 113.5h99q19 -65 89 -65t89 65h99q-7 -72 -57.5 -113.5t-130.5 -41.5z" />
    <glyph glyph-name="dotaccent" unicode="&#x2d9;" horiz-adv-x="187" 
d="M94 786q-31 0 -52.5 22t-21.5 52t21.5 52t52.5 22q30 0 51.5 -22t21.5 -52t-21.5 -52t-51.5 -22z" />
    <glyph glyph-name="ring" unicode="&#x2da;" horiz-adv-x="241" 
d="M121 773q-42 0 -71.5 30t-29.5 71t29.5 71t71.5 30q41 0 70.5 -30t29.5 -71t-29.5 -71t-70.5 -30zM121 845q11 0 19.5 8.5t8.5 20.5t-8.5 20.5t-19.5 8.5q-12 0 -20.5 -8.5t-8.5 -20.5t8.5 -20.5t20.5 -8.5z" />
    <glyph glyph-name="ogonek" unicode="&#x2db;" horiz-adv-x="199" 
d="M114 -157l-65 67q-29 31 -29 57q0 22 18 43h128q-23 -21 -23 -46q0 -32 36 -56z" />
    <glyph glyph-name="tilde" unicode="&#x2dc;" horiz-adv-x="424" 
d="M111 804l-91 25q16 69 44.5 101.5t78.5 33.5q28 1 66 -18.5t56 -19.5q34 0 52 45l87 -24q-16 -71 -44 -102t-78 -31q-32 0 -68 18t-55 18q-17 -1 -27.5 -11.5t-20.5 -34.5z" />
    <glyph glyph-name="hungarumlaut" unicode="&#x2dd;" horiz-adv-x="427" 
d="M20 826l63 138h137l-104 -138h-96zM207 826l63 138h137l-104 -138h-96z" />
    <glyph glyph-name="uni0326" unicode="&#x326;" horiz-adv-x="0" 
d="M-99 -327v85q-34 0 -57 23t-23 56t23 56t56 23t56.5 -23t23.5 -56q0 -95 -79 -164z" />
    <glyph glyph-name="Wgrave" unicode="&#x1e80;" horiz-adv-x="1057" 
d="M472 826l-104 138h137l63 -138h-96zM256 0l-246 750h200l146 -447l73 221h199l73 -220l146 446h200l-247 -750h-199l-72 222l-74 -222h-199z" />
    <glyph glyph-name="wgrave" unicode="&#x1e81;" horiz-adv-x="810" 
d="M353 547l-104 138h137l63 -138h-96zM222 0l-217 460h179l95 -205l95 205h64l95 -205l95 205h177l-213 -460h-115l-71 150l-69 -150h-115z" />
    <glyph glyph-name="Wacute" unicode="&#x1e82;" horiz-adv-x="1057" 
d="M479 826l63 149h137l-104 -149h-96zM256 0l-246 750h200l146 -447l73 221h199l73 -220l146 446h200l-247 -750h-199l-72 222l-74 -222h-199z" />
    <glyph glyph-name="wacute" unicode="&#x1e83;" horiz-adv-x="810" 
d="M360 547l63 149h137l-104 -149h-96zM222 0l-217 460h179l95 -205l95 205h64l95 -205l95 205h177l-213 -460h-115l-71 150l-69 -150h-115z" />
    <glyph glyph-name="Wdieresis" unicode="&#x1e84;" horiz-adv-x="1057" 
d="M418 805q-33 0 -56.5 23.5t-23.5 56.5q0 32 23.5 55.5t56.5 23.5q32 0 55.5 -23.5t23.5 -55.5q0 -33 -23.5 -56.5t-55.5 -23.5zM648 805q-33 0 -56.5 23.5t-23.5 56.5q0 32 23.5 55.5t56.5 23.5q32 0 55.5 -23.5t23.5 -55.5q0 -33 -23.5 -56.5t-55.5 -23.5zM256 0
l-246 750h200l146 -447l73 221h199l73 -220l146 446h200l-247 -750h-199l-72 222l-74 -222h-199z" />
    <glyph glyph-name="wdieresis" unicode="&#x1e85;" horiz-adv-x="810" 
d="M299 526q-33 0 -56.5 23.5t-23.5 56.5q0 32 23.5 55.5t56.5 23.5q32 0 55.5 -23.5t23.5 -55.5q0 -33 -23.5 -56.5t-55.5 -23.5zM529 526q-33 0 -56.5 23.5t-23.5 56.5q0 32 23.5 55.5t56.5 23.5q32 0 55.5 -23.5t23.5 -55.5q0 -33 -23.5 -56.5t-55.5 -23.5zM222 0
l-217 460h179l95 -205l95 205h64l95 -205l95 205h177l-213 -460h-115l-71 150l-69 -150h-115z" />
    <glyph glyph-name="Ygrave" unicode="&#x1ef2;" horiz-adv-x="763" 
d="M324 826l-104 138h137l63 -138h-96zM284 0v276l-274 474h227l144 -250l145 250h227l-274 -474v-276h-195z" />
    <glyph glyph-name="ygrave" unicode="&#x1ef3;" horiz-adv-x="583" 
d="M321 547h-96l-104 138h137zM353 460h160v-502q0 -110 -72.5 -185t-188.5 -75h-109v161h112q47 0 72.5 26.5t25.5 72.5v45q-41 -13 -75 -13q-88 0 -153 64t-65 159v247h151v-247q0 -31 19.5 -50.5t45.5 -19.5q33 0 55 20t22 50v247z" />
    <glyph glyph-name="quoteleft" unicode="&#x2018;" horiz-adv-x="198" 
d="M99 510q-32 0 -55.5 24.5t-23.5 56.5v10t3.5 25t11 37.5t24 42.5t40.5 44v-82q32 0 55.5 -22.5t23.5 -54.5t-23.5 -56.5t-55.5 -24.5z" />
    <glyph glyph-name="quoteright" unicode="&#x2019;" horiz-adv-x="284" 
d="M142 510v82q-32 0 -55.5 22.5t-23.5 54.5t23.5 56.5t55.5 24.5t55.5 -24.5t23.5 -56.5v-10t-3.5 -25t-11 -37.5t-24 -42.5t-40.5 -44z" />
    <glyph glyph-name="quotedblleft" unicode="&#x201c;" horiz-adv-x="375" 
d="M99 510q-32 0 -55.5 24.5t-23.5 56.5v10t3.5 25t11 37.5t24 42.5t40.5 44v-82q32 0 55.5 -22.5t23.5 -54.5t-23.5 -56.5t-55.5 -24.5zM276 510q-32 0 -55.5 24.5t-23.5 56.5v10t3.5 25t11 37.5t24 42.5t40.5 44v-82q32 0 55.5 -22.5t23.5 -54.5t-23.5 -56.5t-55.5 -24.5z
" />
    <glyph glyph-name="quotedblright" unicode="&#x201d;" horiz-adv-x="461" 
d="M142 510v82q-32 0 -55.5 22.5t-23.5 54.5t23.5 56.5t55.5 24.5q31 0 55 -22t24 -59q0 -95 -79 -159zM319 510v82q-32 0 -55.5 22.5t-23.5 54.5t23.5 56.5t55.5 24.5t55.5 -24.5t23.5 -56.5q0 -46 -22.5 -88.5t-56.5 -70.5z" />
    <glyph glyph-name="fraction" unicode="&#x2044;" horiz-adv-x="562" 
d="M20 0l346 750h176l-347 -750h-175z" />
    <glyph glyph-name="minus" unicode="&#x2212;" horiz-adv-x="573" 
d="M50 282v158h473v-158h-473z" />
    <glyph glyph-name="i.loclTRK" horiz-adv-x="300" 
d="M155 507q-31 0 -52.5 22t-21.5 52t21.5 52t52.5 22q30 0 51.5 -22t21.5 -52t-21.5 -52t-51.5 -22zM70 0v460h160v-460h-160z" />
    <glyph glyph-name="NULL" horiz-adv-x="600" 
 />
    </font>
</defs>
</svg>
