<svg xmlns="http://www.w3.org/2000/svg" viewBox="0 0 64.286 33.015">
    <path
        d="M1.754 0A1.758 1.758 0 0 0 1 3.343l5.011 2.649a6.534 6.534 0 0 0 1.123 4.229 3.632 3.632 0 0 0 2.883 1.621c2.975 0 4.18-3.541 4-5.922C10.064 4.177 6.365 2.133 2.516.172A1.752 1.752 0 0 0 1.754 0zm17.129 5.587a1.775 1.775 0 1 0 0 3.549h6.141a1.775 1.775 0 0 0 0-3.55zm20.434 2.874a4.969 4.969 0 0 0-3.463 1.416l-.071.065a5.188 5.188 0 0 0-.48.561 4.974 4.974 0 0 0-.8 1.671c-.578.224-1.158.476-1.729.758a21.831 21.831 0 0 0-2.717 1.6 20.21 20.21 0 0 0-6.629 8.739 11.565 11.565 0 0 0-.568 2.166 8.04 8.04 0 0 0-.05 2.1l.01.124.006.043a6.045 6.045 0 0 0 2.574 4.6 4.421 4.421 0 0 0 .939.433 4.664 4.664 0 0 0 .838.185 1.569 1.569 0 0 0 .195.025l.1.008h.034c1.78.105 3.305.062 4.81.019.67-.019 1.341-.038 1.964-.042 3.914-.028 4.721-3.035 5.53-6.067a16.6 16.6 0 0 1 .754-2.358h7.235a4.757 4.757 0 0 0 4.859-3.319 7.054 7.054 0 0 0 .294-1.049l9.542.04h.051a1.729 1.729 0 0 0 1.728-1.729v-5.093h.007v-2.212a2.52 2.52 0 0 0-2.207-2.463 1.81 1.81 0 0 0-.314-.031h-1.621v.008h-.027a2.517 2.517 0 0 0-1.627.633l-.008.007-.025.02-.076.068-.006.006a2.529 2.529 0 0 0-.64 1.081h-5.363a5.057 5.057 0 0 0-1.671-1.433 4.781 4.781 0 0 0-.477-.223l-.135-.057a4.924 4.924 0 0 0-1.48-.291 1.81 1.81 0 0 0-.208-.013h-9.078zm9.165 3.47a1.5 1.5 0 0 1 .4.089l.041.015h.022a1.179 1.179 0 0 1 .125.057h.008a1.536 1.536 0 0 1 .694.761 1.738 1.738 0 0 0 1.749 1.064h7.826a1.73 1.73 0 0 0 1.464-.8v.23h.007v3.351l-9.422-.04a1.73 1.73 0 0 0-1.736 1.715v.006c0 .1-.01.245-.023.441v.032a5.333 5.333 0 0 1-.083.586 3.5 3.5 0 0 1-.148.537 1.548 1.548 0 0 1-1.6 1.044h-8.23a1.735 1.735 0 0 0-1.482.839 6.538 6.538 0 0 0-.409.656v.009c-.189-.126-1.149 3.2-1.21 3.43-.468 1.755-.936 3.5-2.2 3.5-.733 0-1.388.024-2.044.042-1.4.041-2.809.081-4.477-.017l-.1-.007h-.064a1.457 1.457 0 0 1-.17-.045 1 1 0 0 1-.206-.094 2.852 2.852 0 0 1-.947-2.1l-.006-.043v-.022a4.706 4.706 0 0 1 .041-1.223 8.088 8.088 0 0 1 .394-1.5 16.309 16.309 0 0 1 5.332-7.073 18.46 18.46 0 0 1 2.284-1.342 18.263 18.263 0 0 1 2.305-.949 1.731 1.731 0 0 0 1.184-1.64v-.066a1.516 1.516 0 0 1 .3-.824 1.73 1.73 0 0 1 .154-.179 1.512 1.512 0 0 1 1.068-.438h9.165zm-33.9 5.807A17.346 17.346 0 0 0 .411 25.125a1.747 1.747 0 1 0 2.864 2 13.8 13.8 0 0 1 11.309-5.878v-.007a13.847 13.847 0 0 1 1.8.12c.054.007.045.009.294.047a13.714 13.714 0 0 1 1.474.308 1.752 1.752 0 0 0 .9-3.385 17.286 17.286 0 0 0-1.858-.391c-.031 0-.09-.01-.363-.046a17.308 17.308 0 0 0-2.256-.148v-.007z"
    />
</svg>